{
.formatVersion = 3;
DisplayStrings = (
"भरत अब घर चल । घर चल कर फल चख । जचल भराभरा कर रख । टब भर कर रख । कर नगर चल । डगर डगर चल । बहस मबत कर । कल जतल बह कर चल । सच सच कह । उपमवन चल कमवर कबसरत कर । अचकन पहन कर चल । छतर भथरमस रख कर शहद चख । खटपट मत कर । झटपट चल । शरबत चख कर मटक मत । नटखट मत बन । सडक पर मत टहल । बतख मत पक ।/uni000A कलतम पक कर सबक । मनन अब घर पर रह ।/.notdef",
"कंवबभनमं\rपफणष चजं \rछजंघकध र ल/stemserif तहूहु  \rटूटुठढदू फुफूूुा/stemserif  े ै  ौ\rरसखयथश ०२ ३\rडूडुङझईइ\rअआइईउऊएऐओऔ\r"
);
familyName = crudev4;
customParameters = (
{
name = glyphOrder;
value = (
.notdef,
a,
b,
c,
d,
e,
f,
g,
h,
i,
j,
k,
l,
m,
n,
o,
p,
q,
r,
s,
t,
u,
v,
w,
x,
y,
z,
"candrabinduinverted-deva",
"candrabindu-deva",
"anusvara-deva",
"visarga-deva",
"ashort-deva",
"a-deva",
"aa-deva",
"i-deva",
"ii-deva",
"u-deva",
"uu-deva",
"vocalicr-deva",
"vocalicl-deva",
"ecandra-deva",
"eshort-deva",
"e-deva",
"ai-deva",
"ocandra-deva",
"oshort-deva",
"o-deva",
"au-deva",
"ka-deva",
"kha-deva",
"ga-deva",
"gha-deva",
"nga-deva",
"ca-deva",
"cha-deva",
"ja-deva",
"jha-deva",
"nya-deva",
"tta-deva",
"ttha-deva",
"dda-deva",
"ddha-deva",
"nna-deva",
"ta-deva",
"tha-deva",
"da-deva",
"dha-deva",
"na-deva",
"nnna-deva",
"pa-deva",
"pha-deva",
"ba-deva",
"bha-deva",
"ma-deva",
"ya-deva",
"ra-deva",
"rra-deva",
"la-deva",
"lla-deva",
"llla-deva",
"va-deva",
"sha-deva",
"ssa-deva",
"sa-deva",
"ha-deva",
"oesign-deva",
"ooesign-deva",
"nukta-deva.1",
"avagraha-deva",
"aasign-deva",
"isign-deva",
"iisign-deva",
"usign-deva",
"uusign-deva",
"vocalicrsign-deva",
"vocalicrrsign-deva",
"esigncandra-deva",
"esignshort-deva",
"esign-deva",
"aisign-deva",
"osigncandra-deva",
"osignshort-deva",
"osign-deva",
"ausign-deva",
"virama-deva",
"esignprishthamatra-deva",
"awsign-deva",
"om-deva",
"esigncandralong-deva",
"uesign-deva",
"uuesign-deva",
"qa-deva",
"khha-deva",
"ghha-deva",
"za-deva",
"dddha-deva",
"rha-deva",
"fa-deva",
"yya-deva",
"vocalicrr-deva",
"vocalicll-deva",
"vocaliclsign-deva",

glyphs = (
{
color = 7;
glyphname = a;
layers = (
{
layerId = "F57DB3D0-3720-4424-A829-EC3295753544";
associatedMasterId = "2ACD8D93-9596-4DD4-A1F7-681CA80B893F";
name = 1;
shapes = (
{
attr = {
strokeWidth = 80;
};
closed = 0;
nodes = (
(361,278,l),
(361,382,o),
(282,400,o),
(220,400,cs),
(86,400,o),
(40,317,o),
(40,210,cs),
(40,129,o),
(66,40,o),
(186,40,cs),
(264,40,o),
(360,77,o),
(360,141,c)
);
},
{
attr = {
strokeWidth = 80;
};
closed = 0;
nodes = (
(360,438,l),
(360,0,l)
);
}
);
width = 480;
},
{
layerId = "2ACD8D93-9596-4DD4-A1F7-681CA80B893F";
shapes = (
{
attr = {
strokeWidth = 80;
};
closed = 0;
nodes = (
(361,278,l),
(361,382,o),
(282,400,o),
(220,400,cs),
(86,400,o),
(40,317,o),
(40,210,cs),
(40,129,o),
(66,40,o),
(186,40,cs),
(264,40,o),
(360,77,o),
(360,141,c)
);
},
{
attr = {
strokeWidth = 80;
};
closed = 0;
nodes = (
(360,438,l),
(360,0,l)
);
}
);
width = 480;
}
);
unicode = 97;
},
{
color = 7;
glyphname = b;
layers = (
{
guides = (
{
position = "{0, 1001}";
},
{
position = "{0, 1000}";
}
);
layerId = "F57DB3D0-3720-4424-A829-EC3295753544";
associatedMasterId = "2ACD8D93-9596-4DD4-A1F7-681CA80B893F";
name = 1;
shapes = (
{
attr = {
strokeWidth = 80;
};
closed = 0;
nodes = (
(119,640,l),
(119,0,l)
);
},
{
attr = {
strokeWidth = 80;
};
closed = 0;
nodes = (
(235,35,l),
(346,35,o),
(397,121,o),
(397,217,cs),
(397,319,o),
(355,405,o),
(231,403,c)
);
},
{
attr = {
strokeWidth = 80;
};
closed = 0;
nodes = (
(119,98,l),
(145,59,o),
(187,35,o),
(246,35,c)
);
},
{
attr = {
strokeWidth = 80;
};
closed = 0;
nodes = (
(250,403,l),
(190,403,o),
(148,383,o),
(123,348,c)
);
}
);
width = 480;
},
{
guides = (
{
position = "{0, 1001}";
},
{
position = "{0, 1000}";
}
);
layerId = "2ACD8D93-9596-4DD4-A1F7-681CA80B893F";
shapes = (
{
attr = {
strokeWidth = 80;
};
closed = 0;
nodes = (
(119,640,l),
(119,0,l)
);
},
{
attr = {
strokeWidth = 80;
};
closed = 0;
nodes = (
(235,35,l),
(346,35,o),
(397,121,o),
(397,217,cs),
(397,319,o),
(355,405,o),
(231,403,c)
);
},
{
attr = {
strokeWidth = 80;
};
closed = 0;
nodes = (
(119,98,l),
(145,59,o),
(187,35,o),
(246,35,c)
);
},
{
attr = {
strokeWidth = 80;
};
closed = 0;
nodes = (
(250,403,l),
(190,403,o),
(148,383,o),
(123,348,c)
);
}
);
width = 480;
}
);
unicode = 98;
},
{
color = 7;
glyphname = c;
layers = (
{
layerId = "F57DB3D0-3720-4424-A829-EC3295753544";
associatedMasterId = "2ACD8D93-9596-4DD4-A1F7-681CA80B893F";
name = 1;
shapes = (
{
attr = {
strokeWidth = 80;
};
closed = 0;
nodes = (
(244,403,l),
(123,406,o),
(80,320,o),
(80,219,cs),
(80,123,o),
(131,38,o),
(241,38,c)
);
},
{
attr = {
strokeWidth = 80;
};
closed = 0;
nodes = (
(231,38,l),
(290,38,o),
(331,62,o),
(357,101,c)
);
},
{
attr = {
strokeWidth = 80;
};
closed = 0;
nodes = (
(353,349,l),
(327,384,o),
(286,404,o),
(226,403,c)
);
}
);
width = 400;
},
{
layerId = "2ACD8D93-9596-4DD4-A1F7-681CA80B893F";
shapes = (
{
attr = {
strokeWidth = 80;
};
closed = 0;
nodes = (
(244,403,l),
(123,406,o),
(80,320,o),
(80,219,cs),
(80,123,o),
(131,38,o),
(241,38,c)
);
},
{
attr = {
strokeWidth = 80;
};
closed = 0;
nodes = (
(231,38,l),
(290,38,o),
(331,62,o),
(357,101,c)
);
},
{
attr = {
strokeWidth = 80;
};
closed = 0;
nodes = (
(353,349,l),
(327,384,o),
(286,404,o),
(226,403,c)
);
}
);
width = 400;
}
);
unicode = 99;
},
{
color = 7;
glyphname = d;
layers = (
{
layerId = "F57DB3D0-3720-4424-A829-EC3295753544";
associatedMasterId = "2ACD8D93-9596-4DD4-A1F7-681CA80B893F";
name = 1;
shapes = (
{
attr = {
strokeWidth = 80;
};
closed = 0;
nodes = (
(359,0,l),
(359,639,l)
);
},
{
attr = {
strokeWidth = 80;
};
closed = 0;
nodes = (
(242,402,l),
(119,404,o),
(77,318,o),
(77,216,cs),
(77,120,o),
(128,35,o),
(238,35,c)
);
},
{
attr = {
strokeWidth = 80;
};
closed = 0;
nodes = (
(228,35,l),
(287,35,o),
(329,59,o),
(354,98,c)
);
},
{
attr = {
strokeWidth = 80;
};
closed = 0;
nodes = (
(351,348,l),
(325,382,o),
(283,402,o),
(224,402,c)
);
}
);
width = 479;
},
{
layerId = "2ACD8D93-9596-4DD4-A1F7-681CA80B893F";
shapes = (
{
attr = {
strokeWidth = 80;
};
closed = 0;
nodes = (
(359,0,l),
(359,639,l)
);
},
{
attr = {
strokeWidth = 80;
};
closed = 0;
nodes = (
(242,402,l),
(119,404,o),
(77,318,o),
(77,216,cs),
(77,120,o),
(128,35,o),
(238,35,c)
);
},
{
attr = {
strokeWidth = 80;
};
closed = 0;
nodes = (
(228,35,l),
(287,35,o),
(329,59,o),
(354,98,c)
);
},
{
attr = {
strokeWidth = 80;
};
closed = 0;
nodes = (
(351,348,l),
(325,382,o),
(283,402,o),
(224,402,c)
);
}
);
width = 479;
}
);
unicode = 100;
},
{
color = 7;
glyphname = f;
layers = (
{
layerId = "F57DB3D0-3720-4424-A829-EC3295753544";
associatedMasterId = "2ACD8D93-9596-4DD4-A1F7-681CA80B893F";
name = 1;
shapes = (
{
attr = {
strokeWidth = 80;
};
closed = 0;
nodes = (
(118,0,l),
(118,209,o),
(118,325,o),
(118,545,cs),
(118,609,o),
(262,637,o),
(262,509,c)
);
},
{
attr = {
strokeWidth = 80;
};
closed = 0;
nodes = (
(9,400,l),
(262,400,l)
);
}
);
width = 241;
},
{
layerId = "2ACD8D93-9596-4DD4-A1F7-681CA80B893F";
shapes = (
{
attr = {
strokeWidth = 80;
};
closed = 0;
nodes = (
(118,0,l),
(118,209,o),
(118,325,o),
(118,545,cs),
(118,609,o),
(262,637,o),
(262,509,c)
);
},
{
attr = {
strokeWidth = 80;
};
closed = 0;
nodes = (
(9,400,l),
(262,400,l)
);
}
);
width = 241;
}
);
unicode = 102;
},
{
color = 7;
glyphname = g;
layers = (
{
layerId = "F57DB3D0-3720-4424-A829-EC3295753544";
associatedMasterId = "2ACD8D93-9596-4DD4-A1F7-681CA80B893F";
name = 1;
shapes = (
{
attr = {
strokeWidth = 80;
};
closed = 0;
nodes = (
(250,406,l),
(127,409,o),
(75,325,o),
(75,222,cs),
(75,126,o),
(136,39,o),
(246,39,c)
);
},
{
attr = {
strokeWidth = 80;
};
closed = 0;
nodes = (
(236,39,l),
(295,39,o),
(329,65,o),
(354,103,c)
);
},
{
attr = {
strokeWidth = 80;
};
closed = 0;
nodes = (
(360,354,l),
(334,388,o),
(293,407,o),
(233,406,c)
);
},
{
attr = {
strokeWidth = 80;
};
closed = 0;
nodes = (
(361,440,l),
(361,-134,l)
);
},
{
attr = {
strokeWidth = 80;
};
closed = 0;
nodes = (
(368,-111,l),
(341,-150,o),
(291,-185,o),
(228,-185,cs),
(148,-185,o),
(87,-154,o),
(88,-65,c)
);
}
);
width = 462;
},
{
layerId = "2ACD8D93-9596-4DD4-A1F7-681CA80B893F";
shapes = (
{
attr = {
strokeWidth = 80;
};
closed = 0;
nodes = (
(250,406,l),
(127,409,o),
(75,325,o),
(75,222,cs),
(75,126,o),
(136,39,o),
(246,39,c)
);
},
{
attr = {
strokeWidth = 80;
};
closed = 0;
nodes = (
(236,39,l),
(295,39,o),
(329,65,o),
(354,103,c)
);
},
{
attr = {
strokeWidth = 80;
};
closed = 0;
nodes = (
(360,354,l),
(334,388,o),
(293,407,o),
(233,406,c)
);
},
{
attr = {
strokeWidth = 80;
};
closed = 0;
nodes = (
(361,440,l),
(361,-134,l)
);
},
{
attr = {
strokeWidth = 80;
};
closed = 0;
nodes = (
(368,-111,l),
(341,-150,o),
(291,-185,o),
(228,-185,cs),
(148,-185,o),
(87,-154,o),
(88,-65,c)
);
}
);
width = 462;
}
);
unicode = 103;
},
{
color = 7;
glyphname = h;
layers = (
{
layerId = "F57DB3D0-3720-4424-A829-EC3295753544";
associatedMasterId = "2ACD8D93-9596-4DD4-A1F7-681CA80B893F";
name = 1;
shapes = (
{
attr = {
strokeWidth = 80;
};
closed = 0;
nodes = (
(119,640,l),
(119,0,l)
);
},
{
attr = {
strokeWidth = 80;
};
closed = 0;
nodes = (
(379,0,l),
(379,276,l),
(375,380,o),
(309,399,o),
(266,399,cs),
(119,399,o),
(119,210,o),
(119,204,c)
);
}
);
width = 479;
},
{
layerId = "2ACD8D93-9596-4DD4-A1F7-681CA80B893F";
shapes = (
{
attr = {
strokeWidth = 80;
};
closed = 0;
nodes = (
(119,640,l),
(119,0,l)
);
},
{
attr = {
strokeWidth = 80;
};
closed = 0;
nodes = (
(379,0,l),
(379,276,l),
(375,380,o),
(309,399,o),
(266,399,cs),
(119,399,o),
(119,210,o),
(119,204,c)
);
}
);
width = 479;
}
);
unicode = 104;
},
{
color = 7;
glyphname = i;
layers = (
{
layerId = "E33FBDD1-4FDD-4F7C-9875-C29177532B41";
associatedMasterId = "2ACD8D93-9596-4DD4-A1F7-681CA80B893F";
name = 9;
shapes = (
{
attr = {
strokeWidth = 80;
};
closed = 0;
nodes = (
(119,440,l),
(119,0,l)
);
},
{
attr = {
strokeWidth = 80;
};
closed = 0;
nodes = (
(120,521,l),
(120,639,l)
);
}
);
width = 239;
},
{
layerId = "DB958CF9-30D2-4BD6-9412-3E1DEB0645B5";
associatedMasterId = "2ACD8D93-9596-4DD4-A1F7-681CA80B893F";
name = 8;
shapes = (
{
closed = 1;
nodes = (
(160,436,l),
(73,504,l),
(-6,438,l),
(35,393,l),
(62,417,l),
(80,403,l),
(80,108,l),
(49,65,l),
(171,-3,l),
(248,87,l),
(203,121,l),
(181,95,l),
(160,106,l)
);
},
{
attr = {
strokeWidth = 80;
};
closed = 0;
nodes = (
(124,527,l),
(181,589,l)
);
}
);
width = 239;
},
{
layerId = "33C7F1AD-FAD4-4547-88A7-32A2B2BEDF31";
associatedMasterId = "2ACD8D93-9596-4DD4-A1F7-681CA80B893F";
name = 7;
shapes = (
{
attr = {
strokeWidth = 80;
};
closed = 0;
nodes = (
(118,500,l),
(118,1,l)
);
},
{
attr = {
strokeWidth = 80;
};
closed = 0;
nodes = (
(121,646,l),
(121,557,l)
);
}
);
width = 242;
},
{
layerId = "E8B953D2-1646-432A-B645-568774564629";
associatedMasterId = "2ACD8D93-9596-4DD4-A1F7-681CA80B893F";
name = 6;
shapes = (
{
attr = {
strokeWidth = 80;
};
closed = 0;
nodes = (
(118,500,l),
(118,1,l)
);
},
{
attr = {
strokeWidth = 80;
};
closed = 0;
nodes = (
(121,646,l),
(121,557,l)
);
}
);
width = 242;
},
{
layerId = "D40038C3-471C-4E48-AED1-43259C578B3E";
associatedMasterId = "2ACD8D93-9596-4DD4-A1F7-681CA80B893F";
name = 5;
shapes = (
{
attr = {
strokeWidth = 80;
};
closed = 0;
nodes = (
(118,500,l),
(118,1,l)
);
},
{
attr = {
strokeWidth = 80;
};
closed = 0;
nodes = (
(121,646,l),
(121,557,l)
);
}
);
width = 242;
},
{
layerId = "0955AA8D-C599-40C1-B87A-731DB584DA71";
associatedMasterId = "2ACD8D93-9596-4DD4-A1F7-681CA80B893F";
name = 4;
shapes = (
{
attr = {
strokeWidth = 80;
};
closed = 0;
nodes = (
(118,500,l),
(118,1,l)
);
},
{
attr = {
strokeWidth = 80;
};
closed = 0;
nodes = (
(121,646,l),
(121,557,l)
);
}
);
width = 242;
},
{
layerId = "1F7FC36E-A2C6-4988-AC4B-9366769EB717";
associatedMasterId = "2ACD8D93-9596-4DD4-A1F7-681CA80B893F";
name = 3;
shapes = (
{
attr = {
strokeWidth = 80;
};
closed = 0;
nodes = (
(118,500,l),
(118,1,l)
);
},
{
attr = {
strokeWidth = 80;
};
closed = 0;
nodes = (
(121,646,l),
(121,557,l)
);
}
);
width = 242;
},
{
layerId = "6030268D-84C6-4BCD-A1C3-AD90F9179EB7";
associatedMasterId = "2ACD8D93-9596-4DD4-A1F7-681CA80B893F";
name = 2;
shapes = (
{
attr = {
strokeWidth = 80;
};
closed = 0;
nodes = (
(118,500,l),
(118,1,l)
);
},
{
attr = {
strokeWidth = 80;
};
closed = 0;
nodes = (
(121,646,l),
(121,557,l)
);
}
);
width = 242;
},
{
layerId = "D25B9099-3654-497B-B22C-7FA0898BAFC4";
associatedMasterId = "2ACD8D93-9596-4DD4-A1F7-681CA80B893F";
name = 11;
shapes = (
{
attr = {
strokeWidth = 80;
};
closed = 0;
nodes = (
(119,500,l),
(119,0,l)
);
},
{
attr = {
strokeWidth = 80;
};
closed = 0;
nodes = (
(120,561,l),
(120,679,l)
);
}
);
width = 239;
},
{
layerId = "035EC846-CBE5-43B0-802F-AA4AE6BF8392";
associatedMasterId = "2ACD8D93-9596-4DD4-A1F7-681CA80B893F";
name = 10;
shapes = (
{
attr = {
strokeWidth = 80;
};
closed = 0;
nodes = (
(119,440,l),
(119,0,l)
);
},
{
attr = {
strokeWidth = 80;
};
closed = 0;
nodes = (
(120,521,l),
(120,599,l)
);
}
);
width = 239;
},
{
layerId = "F57DB3D0-3720-4424-A829-EC3295753544";
associatedMasterId = "2ACD8D93-9596-4DD4-A1F7-681CA80B893F";
name = 1;
shapes = (
{
attr = {
strokeWidth = 80;
};
closed = 0;
nodes = (
(118,500,l),
(118,1,l)
);
},
{
attr = {
strokeWidth = 80;
};
closed = 0;
nodes = (
(121,646,l),
(121,557,l)
);
}
);
width = 242;
},
{
layerId = "2ACD8D93-9596-4DD4-A1F7-681CA80B893F";
shapes = (
{
attr = {
strokeWidth = 80;
};
closed = 0;
nodes = (
(118,500,l),
(118,1,l)
);
},
{
attr = {
strokeWidth = 80;
};
closed = 0;
nodes = (
(121,646,l),
(121,557,l)
);
}
);
width = 242;
}
);
unicode = 105;
},
{
color = 7;
glyphname = j;
layers = (
{
layerId = "F57DB3D0-3720-4424-A829-EC3295753544";
associatedMasterId = "2ACD8D93-9596-4DD4-A1F7-681CA80B893F";
name = 1;
shapes = (
{
attr = {
strokeWidth = 80;
};
closed = 0;
nodes = (
(120,400,l),
(120,-140,ls),
(120,-221,o),
(0,-207,o),
(-2,-207,c)
);
},
{
attr = {
strokeWidth = 80;
};
closed = 0;
nodes = (
(120,481,l),
(120,559,l)
);
}
);
width = 240;
},
{
layerId = "2ACD8D93-9596-4DD4-A1F7-681CA80B893F";
shapes = (
{
attr = {
strokeWidth = 80;
};
closed = 0;
nodes = (
(120,400,l),
(120,-140,ls),
(120,-221,o),
(0,-207,o),
(-2,-207,c)
);
},
{
attr = {
strokeWidth = 80;
};
closed = 0;
nodes = (
(120,481,l),
(120,559,l)
);
}
);
width = 240;
}
);
unicode = 106;
},
{
color = 7;
glyphname = l;
layers = (
{
layerId = "F57DB3D0-3720-4424-A829-EC3295753544";
associatedMasterId = "2ACD8D93-9596-4DD4-A1F7-681CA80B893F";
name = 1;
shapes = (
{
attr = {
strokeWidth = 80;
};
closed = 0;
nodes = (
(119,640,l),
(119,0,l)
);
}
);
width = 240;
},
{
layerId = "2ACD8D93-9596-4DD4-A1F7-681CA80B893F";
shapes = (
{
attr = {
strokeWidth = 80;
};
closed = 0;
nodes = (
(119,640,l),
(119,0,l)
);
}
);
width = 240;
}
);
unicode = 108;
},
{
color = 7;
glyphname = m;
layers = (
{
layerId = "F57DB3D0-3720-4424-A829-EC3295753544";
associatedMasterId = "2ACD8D93-9596-4DD4-A1F7-681CA80B893F";
name = 1;
shapes = (
{
attr = {
strokeWidth = 80;
};
closed = 0;
nodes = (
(119,439,l),
(119,0,l)
);
},
{
attr = {
strokeWidth = 80;
};
closed = 0;
nodes = (
(379,0,l),
(379,276,l),
(375,380,o),
(309,404,o),
(266,404,cs),
(119,404,o),
(119,210,o),
(119,204,c)
);
},
{
attr = {
strokeWidth = 80;
};
closed = 0;
nodes = (
(639,0,l),
(639,276,l),
(635,380,o),
(569,404,o),
(526,404,cs),
(379,404,o),
(379,210,o),
(379,204,c)
);
}
);
width = 763;
},
{
layerId = "2ACD8D93-9596-4DD4-A1F7-681CA80B893F";
shapes = (
{
attr = {
strokeWidth = 80;
};
closed = 0;
nodes = (
(119,439,l),
(119,0,l)
);
},
{
attr = {
strokeWidth = 80;
};
closed = 0;
nodes = (
(379,0,l),
(379,276,l),
(375,380,o),
(309,404,o),
(266,404,cs),
(119,404,o),
(119,210,o),
(119,204,c)
);
},
{
attr = {
strokeWidth = 80;
};
closed = 0;
nodes = (
(639,0,l),
(639,276,l),
(635,380,o),
(569,404,o),
(526,404,cs),
(379,404,o),
(379,210,o),
(379,204,c)
);
}
);
width = 763;
}
);
unicode = 109;
},
{
color = 7;
glyphname = n;
layers = (
{
layerId = "E33FBDD1-4FDD-4F7C-9875-C29177532B41";
associatedMasterId = "2ACD8D93-9596-4DD4-A1F7-681CA80B893F";
name = 9;
shapes = (
{
attr = {
strokeWidth = 80;
};
closed = 0;
nodes = (
(119,439,l),
(119,0,l)
);
},
{
attr = {
strokeWidth = 80;
};
closed = 0;
nodes = (
(379,0,l),
(379,276,l),
(375,380,o),
(309,404,o),
(266,404,cs),
(119,404,o),
(119,210,o),
(119,204,c)
);
}
);
width = 479;
},
{
layerId = "DB958CF9-30D2-4BD6-9412-3E1DEB0645B5";
associatedMasterId = "2ACD8D93-9596-4DD4-A1F7-681CA80B893F";
name = 8;
shapes = (
{
closed = 1;
nodes = (
(80,108,l),
(49,65,l),
(171,-3,l),
(248,87,l),
(203,121,l),
(181,95,l),
(160,106,l),
(160,333,l),
(300,403,l),
(400,343,l),
(400,108,l),
(368,65,l),
(490,-3,l),
(567,87,l),
(522,121,l),
(500,95,l),
(480,106,l),
(480,353,l),
(500,380,l),
(302,502,l),
(160,426,l),
(77,502,l),
(-6,444,l),
(32,399,l),
(60,421,l),
(80,403,l)
);
}
);
width = 558;
},
{
layerId = "33C7F1AD-FAD4-4547-88A7-32A2B2BEDF31";
associatedMasterId = "2ACD8D93-9596-4DD4-A1F7-681CA80B893F";
name = 7;
shapes = (
{
attr = {
strokeWidth = 80;
};
closed = 0;
nodes = (
(119,501,l),
(119,0,l)
);
},
{
attr = {
strokeWidth = 80;
};
closed = 0;
nodes = (
(118,323,l),
(118,323,o),
(146,490,o),
(325,471,c),
(445,452,o),
(439,317,o),
(439,317,c),
(439,317,o),
(439,0,o),
(439,0,c)
);
}
);
width = 561;
},
{
layerId = "E8B953D2-1646-432A-B645-568774564629";
associatedMasterId = "2ACD8D93-9596-4DD4-A1F7-681CA80B893F";
name = 6;
shapes = (
{
attr = {
strokeWidth = 80;
};
closed = 0;
nodes = (
(119,501,l),
(119,0,l)
);
},
{
attr = {
strokeWidth = 80;
};
closed = 0;
nodes = (
(118,323,l),
(118,323,o),
(146,490,o),
(325,471,c),
(445,452,o),
(439,317,o),
(439,317,c),
(439,317,o),
(439,0,o),
(439,0,c)
);
}
);
width = 561;
},
{
layerId = "D40038C3-471C-4E48-AED1-43259C578B3E";
associatedMasterId = "2ACD8D93-9596-4DD4-A1F7-681CA80B893F";
name = 5;
shapes = (
{
attr = {
strokeWidth = 80;
};
closed = 0;
nodes = (
(119,501,l),
(119,0,l)
);
},
{
attr = {
strokeWidth = 80;
};
closed = 0;
nodes = (
(118,323,l),
(118,323,o),
(146,490,o),
(325,471,c),
(445,452,o),
(439,317,o),
(439,317,c),
(439,317,o),
(439,0,o),
(439,0,c)
);
}
);
width = 561;
},
{
layerId = "0955AA8D-C599-40C1-B87A-731DB584DA71";
associatedMasterId = "2ACD8D93-9596-4DD4-A1F7-681CA80B893F";
name = 4;
shapes = (
{
attr = {
strokeWidth = 80;
};
closed = 0;
nodes = (
(119,501,l),
(119,0,l)
);
},
{
attr = {
strokeWidth = 80;
};
closed = 0;
nodes = (
(118,323,l),
(118,323,o),
(146,490,o),
(325,471,c),
(445,452,o),
(439,317,o),
(439,317,c),
(439,317,o),
(439,0,o),
(439,0,c)
);
}
);
width = 561;
},
{
layerId = "1F7FC36E-A2C6-4988-AC4B-9366769EB717";
associatedMasterId = "2ACD8D93-9596-4DD4-A1F7-681CA80B893F";
name = 3;
shapes = (
{
attr = {
strokeWidth = 80;
};
closed = 0;
nodes = (
(119,501,l),
(119,0,l)
);
},
{
attr = {
strokeWidth = 80;
};
closed = 0;
nodes = (
(118,323,l),
(118,323,o),
(146,490,o),
(325,471,c),
(445,452,o),
(439,317,o),
(439,317,c),
(439,317,o),
(439,0,o),
(439,0,c)
);
}
);
width = 561;
},
{
layerId = "6030268D-84C6-4BCD-A1C3-AD90F9179EB7";
associatedMasterId = "2ACD8D93-9596-4DD4-A1F7-681CA80B893F";
name = 2;
shapes = (
{
attr = {
strokeWidth = 80;
};
closed = 0;
nodes = (
(119,501,l),
(119,0,l)
);
},
{
attr = {
strokeWidth = 80;
};
closed = 0;
nodes = (
(118,323,l),
(118,323,o),
(146,490,o),
(325,471,c),
(445,452,o),
(439,317,o),
(439,317,c),
(439,317,o),
(439,0,o),
(439,0,c)
);
}
);
width = 561;
},
{
layerId = "D25B9099-3654-497B-B22C-7FA0898BAFC4";
associatedMasterId = "2ACD8D93-9596-4DD4-A1F7-681CA80B893F";
name = 11;
shapes = (
{
attr = {
strokeWidth = 80;
};
closed = 0;
nodes = (
(119,500,l),
(119,0,l)
);
},
{
attr = {
strokeWidth = 80;
};
closed = 0;
nodes = (
(440,0,l),
(440,328,l),
(436,443,o),
(333,466,o),
(292,464,cs),
(158,459,o),
(119,308,o),
(119,301,c)
);
}
);
width = 560;
},
{
layerId = "035EC846-CBE5-43B0-802F-AA4AE6BF8392";
associatedMasterId = "2ACD8D93-9596-4DD4-A1F7-681CA80B893F";
name = 10;
shapes = (
{
attr = {
strokeWidth = 80;
};
closed = 0;
nodes = (
(119,439,l),
(119,0,l)
);
},
{
attr = {
strokeWidth = 80;
};
closed = 0;
nodes = (
(379,0,l),
(379,276,l),
(375,380,o),
(309,404,o),
(266,404,cs),
(119,404,o),
(119,210,o),
(119,204,c)
);
}
);
width = 477;
},
{
layerId = "F57DB3D0-3720-4424-A829-EC3295753544";
associatedMasterId = "2ACD8D93-9596-4DD4-A1F7-681CA80B893F";
name = 1;
shapes = (
{
attr = {
strokeWidth = 80;
};
closed = 0;
nodes = (
(119,439,l),
(119,0,l)
);
},
{
attr = {
strokeWidth = 80;
};
closed = 0;
nodes = (
(379,0,l),
(379,276,l),
(375,380,o),
(309,404,o),
(266,404,cs),
(119,404,o),
(119,210,o),
(119,204,c)
);
}
);
width = 501;
},
{
layerId = "2ACD8D93-9596-4DD4-A1F7-681CA80B893F";
shapes = (
{
attr = {
strokeWidth = 80;
};
closed = 0;
nodes = (
(119,439,l),
(119,0,l)
);
},
{
attr = {
strokeWidth = 80;
};
closed = 0;
nodes = (
(379,0,l),
(379,276,l),
(375,380,o),
(309,404,o),
(266,404,cs),
(119,404,o),
(119,210,o),
(119,204,c)
);
}
);
width = 501;
}
);
unicode = 110;
},
{
color = 7;
glyphname = o;
layers = (
{
layerId = "E33FBDD1-4FDD-4F7C-9875-C29177532B41";
associatedMasterId = "2ACD8D93-9596-4DD4-A1F7-681CA80B893F";
name = 9;
shapes = (
{
attr = {
strokeWidth = 80;
};
closed = 0;
nodes = (
(253,400,l),
(132,402,o),
(80,317,o),
(80,218,cs),
(80,124,o),
(141,39,o),
(248,39,c)
);
},
{
attr = {
strokeWidth = 80;
};
closed = 0;
nodes = (
(228,39,l),
(346,39,o),
(394,124,o),
(394,218,cs),
(394,312,o),
(358,402,o),
(225,400,c)
);
}
);
width = 478;
},
{
layerId = "DB958CF9-30D2-4BD6-9412-3E1DEB0645B5";
associatedMasterId = "2ACD8D93-9596-4DD4-A1F7-681CA80B893F";
name = 8;
shapes = (
{
closed = 1;
nodes = (
(481,115,l),
(267,0,l),
(49,123,l),
(80,165,l),
(80,401,l),
(292,501,l),
(500,378,l),
(480,351,l)
);
},
{
closed = 1;
nodes = (
(400,165,l),
(400,341,l),
(290,402,l),
(160,342,l),
(160,156,l),
(269,99,l)
);
}
);
width = 564;
},
{
layerId = "33C7F1AD-FAD4-4547-88A7-32A2B2BEDF31";
associatedMasterId = "2ACD8D93-9596-4DD4-A1F7-681CA80B893F";
name = 7;
shapes = (
{
closed = 1;
nodes = (
(56,117,o),
(152,0,o),
(282,0,cs),
(411,0,o),
(507,117,o),
(507,250,cs),
(507,382,o),
(411,499,o),
(282,499,cs),
(153,499,o),
(56,382,o),
(56,250,cs)
);
},
{
closed = 1;
nodes = (
(136,348,o),
(205,419,o),
(282,419,cs),
(357,419,o),
(427,348,o),
(427,250,cs),
(427,151,o),
(357,80,o),
(282,80,cs),
(206,80,o),
(136,151,o),
(136,250,cs)
);
}
);
width = 564;
},
{
layerId = "E8B953D2-1646-432A-B645-568774564629";
associatedMasterId = "2ACD8D93-9596-4DD4-A1F7-681CA80B893F";
name = 6;
shapes = (
{
closed = 1;
nodes = (
(56,117,o),
(152,0,o),
(282,0,cs),
(411,0,o),
(507,117,o),
(507,250,cs),
(507,382,o),
(411,499,o),
(282,499,cs),
(153,499,o),
(56,382,o),
(56,250,cs)
);
},
{
closed = 1;
nodes = (
(136,348,o),
(205,419,o),
(282,419,cs),
(357,419,o),
(427,348,o),
(427,250,cs),
(427,151,o),
(357,80,o),
(282,80,cs),
(206,80,o),
(136,151,o),
(136,250,cs)
);
}
);
width = 564;
},
{
layerId = "D40038C3-471C-4E48-AED1-43259C578B3E";
associatedMasterId = "2ACD8D93-9596-4DD4-A1F7-681CA80B893F";
name = 5;
shapes = (
{
closed = 1;
nodes = (
(56,117,o),
(152,0,o),
(282,0,cs),
(411,0,o),
(507,117,o),
(507,250,cs),
(507,382,o),
(411,499,o),
(282,499,cs),
(153,499,o),
(56,382,o),
(56,250,cs)
);
},
{
closed = 1;
nodes = (
(136,348,o),
(205,419,o),
(282,419,cs),
(357,419,o),
(427,348,o),
(427,250,cs),
(427,151,o),
(357,80,o),
(282,80,cs),
(206,80,o),
(136,151,o),
(136,250,cs)
);
}
);
width = 564;
},
{
layerId = "0955AA8D-C599-40C1-B87A-731DB584DA71";
associatedMasterId = "2ACD8D93-9596-4DD4-A1F7-681CA80B893F";
name = 4;
shapes = (
{
closed = 1;
nodes = (
(56,117,o),
(152,0,o),
(282,0,cs),
(411,0,o),
(507,117,o),
(507,250,cs),
(507,382,o),
(411,499,o),
(282,499,cs),
(153,499,o),
(56,382,o),
(56,250,cs)
);
},
{
closed = 1;
nodes = (
(136,348,o),
(205,419,o),
(282,419,cs),
(357,419,o),
(427,348,o),
(427,250,cs),
(427,151,o),
(357,80,o),
(282,80,cs),
(206,80,o),
(136,151,o),
(136,250,cs)
);
}
);
width = 564;
},
{
layerId = "1F7FC36E-A2C6-4988-AC4B-9366769EB717";
associatedMasterId = "2ACD8D93-9596-4DD4-A1F7-681CA80B893F";
name = 3;
shapes = (
{
closed = 1;
nodes = (
(56,117,o),
(152,0,o),
(282,0,cs),
(411,0,o),
(507,117,o),
(507,250,cs),
(507,382,o),
(411,499,o),
(282,499,cs),
(153,499,o),
(56,382,o),
(56,250,cs)
);
},
{
closed = 1;
nodes = (
(136,348,o),
(205,419,o),
(282,419,cs),
(357,419,o),
(427,348,o),
(427,250,cs),
(427,151,o),
(357,80,o),
(282,80,cs),
(206,80,o),
(136,151,o),
(136,250,cs)
);
}
);
width = 564;
},
{
layerId = "6030268D-84C6-4BCD-A1C3-AD90F9179EB7";
associatedMasterId = "2ACD8D93-9596-4DD4-A1F7-681CA80B893F";
name = 2;
shapes = (
{
closed = 1;
nodes = (
(56,117,o),
(152,0,o),
(282,0,cs),
(411,0,o),
(507,117,o),
(507,250,cs),
(507,382,o),
(411,499,o),
(282,499,cs),
(153,499,o),
(56,382,o),
(56,250,cs)
);
},
{
closed = 1;
nodes = (
(136,348,o),
(205,419,o),
(282,419,cs),
(357,419,o),
(427,348,o),
(427,250,cs),
(427,151,o),
(357,80,o),
(282,80,cs),
(206,80,o),
(136,151,o),
(136,250,cs)
);
}
);
width = 564;
},
{
layerId = "D25B9099-3654-497B-B22C-7FA0898BAFC4";
associatedMasterId = "2ACD8D93-9596-4DD4-A1F7-681CA80B893F";
name = 11;
shapes = (
{
attr = {
strokeWidth = 80;
};
closed = 0;
nodes = (
(271,464,l),
(130,467,o),
(80,368,o),
(80,250,cs),
(80,139,o),
(140,39,o),
(267,39,c)
);
},
{
attr = {
strokeWidth = 80;
};
closed = 0;
nodes = (
(255,39,l),
(382,39,o),
(440,139,o),
(440,250,cs),
(440,361,o),
(396,467,o),
(251,464,c)
);
}
);
width = 521;
},
{
layerId = "035EC846-CBE5-43B0-802F-AA4AE6BF8392";
associatedMasterId = "2ACD8D93-9596-4DD4-A1F7-681CA80B893F";
name = 10;
shapes = (
{
attr = {
strokeWidth = 80;
};
closed = 0;
nodes = (
(243,403,l),
(123,405,o),
(80,320,o),
(80,219,cs),
(80,125,o),
(131,39,o),
(240,39,c)
);
},
{
attr = {
strokeWidth = 80;
};
closed = 0;
nodes = (
(230,39,l),
(338,39,o),
(388,125,o),
(388,219,cs),
(388,314,o),
(350,405,o),
(226,403,c)
);
}
);
width = 480;
},
{
layerId = "F57DB3D0-3720-4424-A829-EC3295753544";
associatedMasterId = "2ACD8D93-9596-4DD4-A1F7-681CA80B893F";
name = 1;
shapes = (
{
attr = {
strokeWidth = 80;
};
closed = 0;
nodes = (
(253,400,l),
(132,402,o),
(80,317,o),
(80,218,cs),
(80,124,o),
(141,39,o),
(248,39,c)
);
},
{
attr = {
strokeWidth = 80;
};
closed = 0;
nodes = (
(228,39,l),
(346,39,o),
(399,124,o),
(399,218,cs),
(399,312,o),
(358,402,o),
(225,400,c)
);
}
);
width = 480;
},
{
layerId = "2ACD8D93-9596-4DD4-A1F7-681CA80B893F";
shapes = (
{
attr = {
strokeWidth = 80;
};
closed = 0;
nodes = (
(253,400,l),
(132,402,o),
(80,317,o),
(80,218,cs),
(80,124,o),
(141,39,o),
(248,39,c)
);
},
{
attr = {
strokeWidth = 80;
};
closed = 0;
nodes = (
(228,39,l),
(346,39,o),
(399,124,o),
(399,218,cs),
(399,312,o),
(358,402,o),
(225,400,c)
);
}
);
width = 480;
}
);
unicode = 111;
},
{
color = 7;
glyphname = p;
layers = (
{
layerId = "F57DB3D0-3720-4424-A829-EC3295753544";
associatedMasterId = "2ACD8D93-9596-4DD4-A1F7-681CA80B893F";
name = 1;
shapes = (
{
attr = {
strokeWidth = 80;
};
closed = 0;
nodes = (
(119,438,l),
(119,-202,l)
);
},
{
attr = {
strokeWidth = 80;
};
closed = 0;
nodes = (
(231,35,l),
(355,33,o),
(397,119,o),
(397,221,cs),
(397,317,o),
(346,403,o),
(235,403,c)
);
},
{
attr = {
strokeWidth = 80;
};
closed = 0;
nodes = (
(246,403,l),
(187,403,o),
(145,379,o),
(119,340,c)
);
},
{
attr = {
strokeWidth = 80;
};
closed = 0;
nodes = (
(123,90,l),
(148,55,o),
(190,35,o),
(250,35,c)
);
}
);
width = 479;
},
{
layerId = "2ACD8D93-9596-4DD4-A1F7-681CA80B893F";
shapes = (
{
attr = {
strokeWidth = 80;
};
closed = 0;
nodes = (
(119,438,l),
(119,-202,l)
);
},
{
attr = {
strokeWidth = 80;
};
closed = 0;
nodes = (
(231,35,l),
(355,33,o),
(397,119,o),
(397,221,cs),
(397,317,o),
(346,403,o),
(235,403,c)
);
},
{
attr = {
strokeWidth = 80;
};
closed = 0;
nodes = (
(246,403,l),
(187,403,o),
(145,379,o),
(119,340,c)
);
},
{
attr = {
strokeWidth = 80;
};
closed = 0;
nodes = (
(123,90,l),
(148,55,o),
(190,35,o),
(250,35,c)
);
}
);
width = 479;
}
);
unicode = 112;
},
{
color = 7;
glyphname = q;
layers = (
{
layerId = "F57DB3D0-3720-4424-A829-EC3295753544";
associatedMasterId = "2ACD8D93-9596-4DD4-A1F7-681CA80B893F";
name = 1;
shapes = (
{
attr = {
strokeWidth = 80;
};
closed = 0;
nodes = (
(358,-202,l),
(358,438,l)
);
},
{
attr = {
strokeWidth = 80;
};
closed = 0;
nodes = (
(242,403,l),
(131,403,o),
(80,317,o),
(80,221,cs),
(80,119,o),
(122,33,o),
(246,35,c)
);
},
{
attr = {
strokeWidth = 80;
};
closed = 0;
nodes = (
(358,340,l),
(332,379,o),
(290,403,o),
(231,403,c)
);
},
{
attr = {
strokeWidth = 80;
};
closed = 0;
nodes = (
(227,35,l),
(287,35,o),
(329,55,o),
(354,90,c)
);
}
);
width = 479;
},
{
layerId = "2ACD8D93-9596-4DD4-A1F7-681CA80B893F";
shapes = (
{
attr = {
strokeWidth = 80;
};
closed = 0;
nodes = (
(358,-202,l),
(358,438,l)
);
},
{
attr = {
strokeWidth = 80;
};
closed = 0;
nodes = (
(242,403,l),
(131,403,o),
(80,317,o),
(80,221,cs),
(80,119,o),
(122,33,o),
(246,35,c)
);
},
{
attr = {
strokeWidth = 80;
};
closed = 0;
nodes = (
(358,340,l),
(332,379,o),
(290,403,o),
(231,403,c)
);
},
{
attr = {
strokeWidth = 80;
};
closed = 0;
nodes = (
(227,35,l),
(287,35,o),
(329,55,o),
(354,90,c)
);
}
);
width = 479;
}
);
unicode = 113;
},
{
color = 7;
glyphname = r;
layers = (
{
layerId = "F57DB3D0-3720-4424-A829-EC3295753544";
associatedMasterId = "2ACD8D93-9596-4DD4-A1F7-681CA80B893F";
name = 1;
shapes = (
{
attr = {
strokeWidth = 80;
};
closed = 0;
nodes = (
(119,440,l),
(119,0,l)
);
},
{
attr = {
strokeWidth = 80;
};
closed = 0;
nodes = (
(300,401,l),
(197,401,o),
(119,368,o),
(119,250,c)
);
}
);
width = 321;
},
{
layerId = "2ACD8D93-9596-4DD4-A1F7-681CA80B893F";
shapes = (
{
attr = {
strokeWidth = 80;
};
closed = 0;
nodes = (
(119,440,l),
(119,0,l)
);
},
{
attr = {
strokeWidth = 80;
};
closed = 0;
nodes = (
(300,401,l),
(197,401,o),
(119,368,o),
(119,250,c)
);
}
);
width = 321;
}
);
unicode = 114;
},
{
color = 7;
glyphname = t;
layers = (
{
layerId = "F57DB3D0-3720-4424-A829-EC3295753544";
associatedMasterId = "2ACD8D93-9596-4DD4-A1F7-681CA80B893F";
name = 1;
shapes = (
{
attr = {
strokeWidth = 80;
};
closed = 0;
nodes = (
(119,581,l),
(119,0,l)
);
},
{
attr = {
strokeWidth = 80;
};
closed = 0;
nodes = (
(19,399,l),
(224,399,l)
);
}
);
width = 241;
},
{
layerId = "2ACD8D93-9596-4DD4-A1F7-681CA80B893F";
shapes = (
{
attr = {
strokeWidth = 80;
};
closed = 0;
nodes = (
(119,581,l),
(119,0,l)
);
},
{
attr = {
strokeWidth = 80;
};
closed = 0;
nodes = (
(19,399,l),
(224,399,l)
);
}
);
width = 241;
}
);
unicode = 116;
},
{
color = 7;
glyphname = u;
layers = (
{
layerId = "F57DB3D0-3720-4424-A829-EC3295753544";
associatedMasterId = "2ACD8D93-9596-4DD4-A1F7-681CA80B893F";
name = 1;
shapes = (
{
attr = {
strokeWidth = 80;
};
closed = 0;
nodes = (
(379,0,l),
(379,439,l)
);
},
{
attr = {
strokeWidth = 80;
};
closed = 0;
nodes = (
(119,439,l),
(119,163,l),
(123,59,o),
(189,35,o),
(232,35,cs),
(379,35,o),
(379,229,o),
(379,235,c)
);
}
);
width = 480;
},
{
layerId = "2ACD8D93-9596-4DD4-A1F7-681CA80B893F";
shapes = (
{
attr = {
strokeWidth = 80;
};
closed = 0;
nodes = (
(379,0,l),
(379,439,l)
);
},
{
attr = {
strokeWidth = 80;
};
closed = 0;
nodes = (
(119,439,l),
(119,163,l),
(123,59,o),
(189,35,o),
(232,35,cs),
(379,35,o),
(379,229,o),
(379,235,c)
);
}
);
width = 480;
}
);
unicode = 117;
},
{
color = 7;
glyphname = v;
layers = (
{
layerId = "F57DB3D0-3720-4424-A829-EC3295753544";
associatedMasterId = "2ACD8D93-9596-4DD4-A1F7-681CA80B893F";
name = 1;
shapes = (
{
attr = {
strokeWidth = 80;
lineCapEnd = 4;
lineCapStart = 4;
};
closed = 0;
nodes = (
(75,440,l),
(231,0,l)
);
},
{
attr = {
strokeWidth = 80;
lineCapEnd = 4;
lineCapStart = 4;
};
closed = 0;
nodes = (
(230,0,l),
(375,440,l)
);
}
);
width = 439;
},
{
layerId = "2ACD8D93-9596-4DD4-A1F7-681CA80B893F";
shapes = (
{
attr = {
strokeWidth = 80;
lineCapEnd = 4;
lineCapStart = 4;
};
closed = 0;
nodes = (
(75,440,l),
(231,0,l)
);
},
{
attr = {
strokeWidth = 80;
lineCapEnd = 4;
lineCapStart = 4;
};
closed = 0;
nodes = (
(230,0,l),
(375,440,l)
);
}
);
width = 439;
}
);
unicode = 118;
},
{
color = 7;
glyphname = w;
layers = (
{
layerId = "F57DB3D0-3720-4424-A829-EC3295753544";
associatedMasterId = "2ACD8D93-9596-4DD4-A1F7-681CA80B893F";
name = 1;
shapes = (
{
attr = {
strokeWidth = 80;
lineCapEnd = 4;
lineCapStart = 4;
};
closed = 0;
nodes = (
(77,441,l),
(231,0,l)
);
},
{
attr = {
strokeWidth = 80;
lineCapEnd = 4;
lineCapStart = 4;
};
closed = 0;
nodes = (
(231,0,l),
(385,441,l)
);
},
{
attr = {
strokeWidth = 80;
lineCapEnd = 4;
lineCapStart = 4;
};
closed = 0;
nodes = (
(389,441,l),
(554,0,l)
);
},
{
attr = {
strokeWidth = 80;
lineCapEnd = 4;
lineCapStart = 4;
};
closed = 0;
nodes = (
(553,0,l),
(688,441,l)
);
}
);
width = 762;
},
{
layerId = "2ACD8D93-9596-4DD4-A1F7-681CA80B893F";
shapes = (
{
attr = {
strokeWidth = 80;
lineCapEnd = 4;
lineCapStart = 4;
};
closed = 0;
nodes = (
(77,441,l),
(231,0,l)
);
},
{
attr = {
strokeWidth = 80;
lineCapEnd = 4;
lineCapStart = 4;
};
closed = 0;
nodes = (
(231,0,l),
(385,441,l)
);
},
{
attr = {
strokeWidth = 80;
lineCapEnd = 4;
lineCapStart = 4;
};
closed = 0;
nodes = (
(389,441,l),
(554,0,l)
);
},
{
attr = {
strokeWidth = 80;
lineCapEnd = 4;
lineCapStart = 4;
};
closed = 0;
nodes = (
(553,0,l),
(688,441,l)
);
}
);
width = 762;
}
);
unicode = 119;
},
{
color = 7;
glyphname = x;
layers = (
{
layerId = "F57DB3D0-3720-4424-A829-EC3295753544";
associatedMasterId = "2ACD8D93-9596-4DD4-A1F7-681CA80B893F";
name = 1;
shapes = (
{
attr = {
strokeWidth = 80;
lineCapEnd = 4;
lineCapStart = 4;
};
closed = 0;
nodes = (
(65,441,l),
(355,0,l)
);
},
{
attr = {
strokeWidth = 80;
lineCapEnd = 4;
lineCapStart = 4;
};
closed = 0;
nodes = (
(81,0,l),
(372,441,l)
);
}
);
width = 441;
},
{
layerId = "2ACD8D93-9596-4DD4-A1F7-681CA80B893F";
shapes = (
{
attr = {
strokeWidth = 80;
lineCapEnd = 4;
lineCapStart = 4;
};
closed = 0;
nodes = (
(65,441,l),
(355,0,l)
);
},
{
attr = {
strokeWidth = 80;
lineCapEnd = 4;
lineCapStart = 4;
};
closed = 0;
nodes = (
(81,0,l),
(372,441,l)
);
}
);
width = 441;
}
);
unicode = 120;
},
{
color = 7;
glyphname = y;
layers = (
{
layerId = "F57DB3D0-3720-4424-A829-EC3295753544";
associatedMasterId = "2ACD8D93-9596-4DD4-A1F7-681CA80B893F";
name = 1;
shapes = (
{
attr = {
strokeWidth = 80;
lineCapEnd = 4;
lineCapStart = 4;
};
closed = 0;
nodes = (
(66,441,l),
(227,-12,l)
);
},
{
attr = {
strokeWidth = 80;
lineCapEnd = 4;
lineCapStart = 4;
};
closed = 0;
nodes = (
(379,441,l),
(180,-151,ls),
(161,-208,o),
(106,-221,o),
(34,-201,c)
);
}
);
width = 442;
},
{
layerId = "2ACD8D93-9596-4DD4-A1F7-681CA80B893F";
shapes = (
{
attr = {
strokeWidth = 80;
lineCapEnd = 4;
lineCapStart = 4;
};
closed = 0;
nodes = (
(66,441,l),
(227,-12,l)
);
},
{
attr = {
strokeWidth = 80;
lineCapEnd = 4;
lineCapStart = 4;
};
closed = 0;
nodes = (
(379,441,l),
(180,-151,ls),
(161,-208,o),
(106,-221,o),
(34,-201,c)
);
}
);
width = 442;
}
);
unicode = 121;
},
{
color = 7;
glyphname = z;
layers = (
{
layerId = "F57DB3D0-3720-4424-A829-EC3295753544";
associatedMasterId = "2ACD8D93-9596-4DD4-A1F7-681CA80B893F";
name = 1;
shapes = (
{
attr = {
strokeWidth = 80;
lineCapEnd = 4;
lineCapStart = 4;
};
closed = 0;
nodes = (
(40,402,l),
(335,401,l)
);
},
{
attr = {
strokeWidth = 80;
lineCapEnd = 4;
lineCapStart = 4;
};
closed = 0;
nodes = (
(351,442,l),
(61,0,l)
);
},
{
attr = {
strokeWidth = 80;
lineCapEnd = 4;
lineCapStart = 4;
};
closed = 0;
nodes = (
(75,40,l),
(407,40,l)
);
}
);
width = 441;
},
{
layerId = "2ACD8D93-9596-4DD4-A1F7-681CA80B893F";
shapes = (
{
attr = {
strokeWidth = 80;
lineCapEnd = 4;
lineCapStart = 4;
};
closed = 0;
nodes = (
(40,402,l),
(335,401,l)
);
},
{
attr = {
strokeWidth = 80;
lineCapEnd = 4;
lineCapStart = 4;
};
closed = 0;
nodes = (
(351,442,l),
(61,0,l)
);
},
{
attr = {
strokeWidth = 80;
lineCapEnd = 4;
lineCapStart = 4;
};
closed = 0;
nodes = (
(75,40,l),
(407,40,l)
);
}
);
width = 441;
}
);
unicode = 122;
},
{
color = 7;
glyphname = "candrabindu-deva";
layers = (
{
anchors = (
{
name = _top;
position = "{200, 770}";
}
);
layerId = "F57DB3D0-3720-4424-A829-EC3295753544";
associatedMasterId = "2ACD8D93-9596-4DD4-A1F7-681CA80B893F";
name = 1;
shapes = (
{
closed = 1;
nodes = (
(370,945,l),
(370,831,o),
(309,770,o),
(197,770,cs),
(71,770,o),
(0,847,o),
(0,982,c),
(40,950,l),
(40,870,o),
(78,840,o),
(180,840,cs),
(278,840,o),
(300,866,o),
(300,980,c)
);
},
{
closed = 1;
nodes = (
(117,955,l),
(172,1012,l),
(229,955,l),
(174,898,l)
);
}
);
width = 370;
},
{
layerId = "2ACD8D93-9596-4DD4-A1F7-681CA80B893F";
width = 664;
}
);
unicode = 2305;
},
{
color = 7;
glyphname = "anusvara-deva";
layers = (
{
anchors = (
{
name = _anutop;
position = "{56, 1181}";
}
);
layerId = "F57DB3D0-3720-4424-A829-EC3295753544";
associatedMasterId = "2ACD8D93-9596-4DD4-A1F7-681CA80B893F";
name = 1;
shapes = (
{
closed = 1;
nodes = (
(57,1066,l),
(112,1123,l),
(55,1180,l),
(0,1123,l)
);
}
);
width = 112;
},
{
layerId = "2ACD8D93-9596-4DD4-A1F7-681CA80B893F";
width = 664;
}
);
unicode = 2306;
},
{
color = 7;
glyphname = "a-deva";
layers = (
{
layerId = "F57DB3D0-3720-4424-A829-EC3295753544";
associatedMasterId = "2ACD8D93-9596-4DD4-A1F7-681CA80B893F";
name = 1;
shapes = (
{
closed = 1;
nodes = (
(621,57,l),
(625,372,l),
(615,654,l),
(707,654,l),
(699,343,l),
(701,57,l)
);
},
{
closed = 1;
nodes = (
(646,157,l),
(699,117,l),
(709,-29,l),
(705,-29,l),
(581,31,l),
(581,35,l)
);
},
{
closed = 1;
nodes = (
(445,700,l),
(829,700,l),
(899,620,l),
(515,620,l)
);
},
{
closed = 1;
nodes = (
(110,260,l),
(10,260,l),
(10,142,o),
(150,10,o),
(290,10,cs),
(394,10,o),
(480,86,o),
(480,192,cs),
(480,295,o),
(410,372,o),
(315,372,c),
(305,350,l),
(363,351,o),
(400,299,o),
(400,214,cs),
(400,124,o),
(352,90,o),
(240,90,cs),
(151,90,o),
(110,120,o),
(110,120,c)
);
},
{
closed = 1;
nodes = (
(341,630,o),
(360,605,o),
(360,530,cs),
(360,440,o),
(325,420,o),
(170,420,c),
(230,320,l),
(340,320,o),
(430,401,o),
(430,501,cs),
(430,609,o),
(326,700,o),
(203,700,cs),
(145,700,o),
(95,681,o),
(70,650,c),
(150,560,l),
(150,578,o),
(179,630,o),
(251,630,cs)
);
},
{
closed = 1;
nodes = (
(359,367,l),
(386,300,l),
(680,300,l),
(681,394,l)
);
}
);
width = 800;
},
{
layerId = "2ACD8D93-9596-4DD4-A1F7-681CA80B893F";
shapes = (
{
attr = {
strokeWidth = 80;
};
closed = 0;
nodes = (
(659,667,l),
(659,0,l)
);
},
{
attr = {
strokeWidth = 80;
};
closed = 0;
nodes = (
(160,380,l),
(271,380,o),
(380,405,o),
(380,525,cs),
(380,624,o),
(307,666,o),
(241,666,cs),
(179,666,o),
(120,630,o),
(120,560,c)
);
},
{
attr = {
strokeWidth = 80;
};
closed = 0;
nodes = (
(80,201,l),
(80,102,o),
(161,60,o),
(245,60,cs),
(340,60,o),
(420,113,o),
(420,222,cs),
(420,377,o),
(259,381,o),
(179,380,c)
);
},
{
attr = {
strokeWidth = 76;
};
closed = 0;
nodes = (
(458,660,l),
(834,660,l)
);
},
{
attr = {
strokeWidth = 76;
};
closed = 0;
nodes = (
(347,341,l),
(626,341,l)
);
}
);
width = 800;
}
);
unicode = 2309;
},
{
color = 7;
glyphname = "aa-deva";
layers = (
{
layerId = "F57DB3D0-3720-4424-A829-EC3295753544";
associatedMasterId = "2ACD8D93-9596-4DD4-A1F7-681CA80B893F";
name = 1;
shapes = (
{
closed = 1;
nodes = (
(622,57,l),
(626,372,l),
(616,654,l),
(708,654,l),
(700,343,l),
(702,57,l)
);
},
{
closed = 1;
nodes = (
(647,157,l),
(700,117,l),
(710,-29,l),
(706,-29,l),
(582,31,l),
(582,35,l)
);
},
{
closed = 1;
nodes = (
(881,57,l),
(885,372,l),
(875,654,l),
(967,654,l),
(959,343,l),
(961,57,l)
);
},
{
closed = 1;
nodes = (
(906,157,l),
(959,117,l),
(969,-29,l),
(965,-29,l),
(841,31,l),
(841,35,l)
);
},
{
closed = 1;
nodes = (
(445,700,l),
(1094,700,l),
(1164,620,l),
(515,620,l)
);
},
{
closed = 1;
nodes = (
(110,260,l),
(10,260,l),
(10,142,o),
(150,10,o),
(290,10,cs),
(394,10,o),
(480,86,o),
(480,192,cs),
(480,295,o),
(410,372,o),
(315,372,c),
(305,350,l),
(363,351,o),
(400,299,o),
(400,214,cs),
(400,124,o),
(352,90,o),
(240,90,cs),
(151,90,o),
(110,120,o),
(110,120,c)
);
},
{
closed = 1;
nodes = (
(341,630,o),
(360,605,o),
(360,530,cs),
(360,440,o),
(325,420,o),
(170,420,c),
(230,320,l),
(340,320,o),
(430,401,o),
(430,501,cs),
(430,609,o),
(326,700,o),
(203,700,cs),
(145,700,o),
(95,681,o),
(70,650,c),
(150,560,l),
(150,578,o),
(179,630,o),
(251,630,cs)
);
},
{
closed = 1;
nodes = (
(359,367,l),
(386,300,l),
(680,300,l),
(681,394,l)
);
}
);
width = 1060;
},
{
layerId = "2ACD8D93-9596-4DD4-A1F7-681CA80B893F";
shapes = (
{
attr = {
strokeWidth = 80;
};
closed = 0;
nodes = (
(919,667,l),
(919,0,l)
);
},
{
attr = {
strokeWidth = 80;
};
closed = 0;
nodes = (
(659,667,l),
(659,0,l)
);
},
{
attr = {
strokeWidth = 80;
};
closed = 0;
nodes = (
(160,380,l),
(271,380,o),
(380,405,o),
(380,525,cs),
(380,624,o),
(307,666,o),
(241,666,cs),
(179,666,o),
(120,630,o),
(120,560,c)
);
},
{
attr = {
strokeWidth = 80;
};
closed = 0;
nodes = (
(80,201,l),
(80,102,o),
(161,60,o),
(245,60,cs),
(340,60,o),
(420,113,o),
(420,222,cs),
(420,377,o),
(259,381,o),
(179,380,c)
);
},
{
attr = {
strokeWidth = 76;
};
closed = 0;
nodes = (
(458,660,l),
(1170,660,l)
);
},
{
attr = {
strokeWidth = 76;
};
closed = 0;
nodes = (
(369,340,l),
(626,340,l)
);
}
);
width = 1060;
}
);
unicode = 2310;
},
{
color = 7;
glyphname = "i-deva";
layers = (
{
layerId = "F57DB3D0-3720-4424-A829-EC3295753544";
associatedMasterId = "2ACD8D93-9596-4DD4-A1F7-681CA80B893F";
name = 1;
shapes = (
{
closed = 1;
nodes = (
(-112,700,l),
(612,700,l),
(682,620,l),
(-42,620,l)
);
},
{
closed = 1;
nodes = (
(-18,-42,l),
(-18,-38,l)
);
},
{
closed = 1;
nodes = (
(300,-160,l),
(106,-160,o),
(40,44,o),
(40,240,c),
(150,180,l),
(126,151,o),
(114,136,o),
(100,118,c),
(92,53,o),
(141,-43,o),
(170,-60,c),
(209,-68,o),
(262,-69,o),
(300,-60,c)
);
},
{
closed = 1;
nodes = (
(170,320,ls),
(140,320,o),
(130,330,o),
(130,362,cs),
(130,414,o),
(157,440,o),
(211,440,cs),
(440,440,l),
(440,660,l),
(360,660,l),
(360,520,l),
(211,520,ls),
(125,520,o),
(70,475,o),
(70,404,cs),
(70,322,o),
(145,240,o),
(221,240,cs),
(369,240,ls),
(420,240,o),
(430,233,o),
(430,197,cs),
(430,124,o),
(379,80,o),
(250,80,cs),
(177,80,o),
(132,91,o),
(99,118,c),
(150,180,l),
(40,240,l),
(40,91,o),
(131,0,o),
(280,0,cs),
(409,0,o),
(500,68,o),
(500,162,cs),
(500,246,o),
(426,320,o),
(340,320,cs)
);
}
);
width = 560;
},
{
layerId = "2ACD8D93-9596-4DD4-A1F7-681CA80B893F";
shapes = (
{
attr = {
strokeWidth = 80;
};
closed = 0;
nodes = (
(80,200,l),
(80,150,o),
(80,-32,o),
(80,-119,c)
);
},
{
attr = {
strokeWidth = 80;
};
closed = 0;
nodes = (
(400,661,l),
(400,480,l),
(220,480,ls),
(145,480,o),
(100,442,o),
(100,380,cs),
(100,318,o),
(145,280,o),
(220,280,cs),
(330,280,ls),
(414,280,o),
(460,240,o),
(460,170,cs),
(460,86,o),
(396,40,o),
(280,40,cs),
(150,40,o),
(80,100,o),
(80,200,c)
);
},
{
attr = {
strokeWidth = 76;
};
closed = 0;
nodes = (
(-16,660,l),
(623,660,l)
);
}
);
width = 540;
}
);
unicode = 2311;
},
{
color = 7;
glyphname = "ii-deva";
layers = (
{
layerId = "F57DB3D0-3720-4424-A829-EC3295753544";
associatedMasterId = "2ACD8D93-9596-4DD4-A1F7-681CA80B893F";
name = 1;
shapes = (
{
closed = 1;
nodes = (
(477,887,o),
(550,823,o),
(550,824,c),
(550,824,o),
(550,971,o),
(550,971,c),
(535,976,o),
(491,980,o),
(460,980,cs),
(389,980,o),
(310,928,o),
(310,840,cs),
(310,711,o),
(414,660,o),
(410,662,c),
(430,662,l),
(400,673,o),
(390,792,o),
(390,820,cs),
(390,877,o),
(415,900,o),
(460,900,c)
);
},
{
attr = {
};
closed = 1;
nodes = (
(-42,620,l),
(682,620,l),
(612,700,l),
(-112,700,l)
);
},
{
closed = 1;
nodes = (
(170,320,ls),
(140,320,o),
(130,330,o),
(130,362,cs),
(130,414,o),
(157,440,o),
(211,440,cs),
(440,440,l),
(440,660,l),
(360,660,l),
(360,520,l),
(211,520,ls),
(125,520,o),
(70,475,o),
(70,404,cs),
(70,322,o),
(145,240,o),
(221,240,cs),
(369,240,ls),
(420,240,o),
(430,233,o),
(430,197,cs),
(430,124,o),
(379,80,o),
(250,80,cs),
(177,80,o),
(132,91,o),
(99,118,c),
(150,180,l),
(40,240,l),
(40,91,o),
(131,0,o),
(280,0,cs),
(409,0,o),
(500,68,o),
(500,162,cs),
(500,246,o),
(426,320,o),
(340,320,cs)
);
},
{
closed = 1;
nodes = (
(300,-60,l),
(262,-69,o),
(209,-68,o),
(170,-60,c),
(141,-43,o),
(92,53,o),
(100,118,c),
(114,136,o),
(126,151,o),
(150,180,c),
(40,240,l),
(40,44,o),
(106,-160,o),
(300,-160,c)
);
}
);
width = 540;
},
{
layerId = "2ACD8D93-9596-4DD4-A1F7-681CA80B893F";
shapes = (
{
closed = 0;
nodes = (
(80,200,l),
(80,100,o),
(150,40,o),
(281,40,cs),
(396,40,o),
(460,86,o),
(460,169,cs),
(460,240,o),
(414,280,o),
(330,280,cs),
(220,280,ls),
(145,280,o),
(100,318,o),
(100,380,cs),
(100,442,o),
(145,480,o),
(220,480,cs),
(400,480,l),
(400,661,l)
);
},
{
closed = 0;
nodes = (
(80,200,l),
(80,150,o),
(80,-32,o),
(80,-119,c)
);
},
{
closed = 0;
nodes = (
(437,661,l),
(373,720,o),
(325,750,o),
(325,829,cs),
(325,913,o),
(388,959,o),
(505,959,c)
);
},
{
closed = 1;
nodes = (
(120,200,l),
(120,104.99,o),
(198.457,80,o),
(281,80,cs),
(417.051,80,o),
(420,145.879,o),
(420,169,cs),
(420,202.527,o),
(408.073,240,o),
(330,240,cs),
(220,240,ls),
(120.021,240,o),
(60,298.046,o),
(60,380,cs),
(60,461.954,o),
(120.021,520,o),
(220,520,cs),
(360.,520.,l),
(360,661,l),
(440,661,l),
(440.008,439.992,l),
(220,440,l),
(179.801,440,o),
(140,427.445,o),
(140,380,cs),
(140,333.098,o),
(178.288,320,o),
(220,320,cs),
(330,320,ls),
(440.042,320,o),
(500,258.969,o),
(500,169,cs),
(500,75.62,o),
(434.015,0,o),
(281,0,cs),
(122.742,0,o),
(40,81.605,o),
(40,200,c)
);
},
{
closed = 1;
nodes = (
(120,200,l),
(120,-119,l),
(40,-119,l),
(40,200,l)
);
},
{
closed = 1;
nodes = (
(412.304,634.212,l),
(359.187,683.179,o),
(285,723.394,o),
(285,829,cs),
(285,946.055,o),
(378.764,999,o),
(505,999,c),
(505,919,l),
(397.236,919,o),
(365,879.945,o),
(365,829,cs),
(365,772.031,o),
(415.012,717.42,o),
(455.016,680.542,c)
);
},
{
attr = {
strokeWidth = 76;
};
closed = 0;
nodes = (
(-16,660,l),
(623,660,l)
);
}
);
width = 541;
}
);
unicode = 2312;
},
{
color = 7;
glyphname = "u-deva";
layers = (
{
layerId = "F57DB3D0-3720-4424-A829-EC3295753544";
associatedMasterId = "2ACD8D93-9596-4DD4-A1F7-681CA80B893F";
name = 1;
shapes = (
{
attr = {
};
closed = 1;
nodes = (
(-98,700,l),
(-28,620,l),
(621,620,l),
(551,700,l)
);
},
{
attr = {
};
closed = 1;
nodes = (
(284,639,l),
(316,639,o),
(352,571,o),
(352,512,cs),
(352,421,o),
(336,401,o),
(179,401,c),
(240,299,l),
(352,299,o),
(422,381,o),
(422,483,cs),
(422,540,o),
(374,629,o),
(324,639,c)
);
},
{
attr = {
};
closed = 1;
nodes = (
(40,220,l),
(62,111,o),
(173,0,o),
(280,0,cs),
(385,0,o),
(472,77,o),
(472,185,cs),
(472,290,o),
(403,368,o),
(306,368,c),
(296,345,l),
(355,346,o),
(392,294,o),
(392,207,cs),
(392,116,o),
(354,80,o),
(240,80,cs),
(173,80,o),
(140,101,o),
(140,101,c),
(140,220,l)
);
}
);
width = 500;
},
{
layerId = "2ACD8D93-9596-4DD4-A1F7-681CA80B893F";
shapes = (
{
closed = 0;
nodes = (
(160,360,l),
(273,360,o),
(384,390,o),
(384,511,cs),
(384,611,o),
(310,658,o),
(243,658,cs)
);
},
{
closed = 0;
nodes = (
(80,183,l),
(80,83,o),
(162,41,o),
(247,41,cs),
(343,41,o),
(424,94,o),
(424,205,cs),
(424,361,o),
(261,361,o),
(180,360,c)
);
},
{
closed = 1;
nodes = (
(160,400,l),
(275.629,400,o),
(344,430.512,o),
(344,511,cs),
(344,604.534,o),
(266.069,622.081,o),
(243,622.081,c),
(243,698.003,l),
(333.251,698.003,o),
(424,632.133,o),
(424,511,cs),
(424,349.488,o),
(270.371,320,o),
(160,320,c)
);
},
{
closed = 1;
nodes = (
(120,183,l),
(120,115.453,o),
(172.059,81,o),
(247,81,cs),
(327.674,81,o),
(384,122.298,o),
(384,205,cs),
(384,301.368,o),
(306.139,321.554,o),
(180.494,320.003,c),
(179.506,399.997,l),
(252.227,400.895,o),
(464,405.595,o),
(464,205,cs),
(464,65.702,o),
(358.326,1,o),
(247,1,cs),
(151.941,1,o),
(40,50.547,o),
(40,183,c)
);
},
{
attr = {
strokeWidth = 76;
};
closed = 0;
nodes = (
(-16,660,l),
(544,660,l)
);
}
);
width = 500;
}
);
unicode = 2313;
},
{
color = 7;
glyphname = "uu-deva";
layers = (
{
layerId = "F57DB3D0-3720-4424-A829-EC3295753544";
associatedMasterId = "2ACD8D93-9596-4DD4-A1F7-681CA80B893F";
name = 1;
shapes = (
{
attr = {
};
closed = 1;
nodes = (
(-98,700,l),
(-28,620,l),
(621,620,l),
(551,700,l)
);
},
{
attr = {
};
closed = 1;
nodes = (
(284,639,l),
(316,639,o),
(352,571,o),
(352,512,cs),
(352,421,o),
(336,401,o),
(179,401,c),
(240,299,l),
(352,299,o),
(422,381,o),
(422,483,cs),
(422,540,o),
(374,629,o),
(324,639,c)
);
},
{
attr = {
};
closed = 1;
nodes = (
(40,220,l),
(62,111,o),
(173,0,o),
(280,0,cs),
(385,0,o),
(472,77,o),
(472,185,cs),
(472,290,o),
(403,368,o),
(306,368,c),
(296,345,l),
(355,346,o),
(392,294,o),
(392,207,cs),
(392,116,o),
(354,80,o),
(240,80,cs),
(173,80,o),
(140,101,o),
(140,101,c),
(140,220,l)
);
},
{
closed = 1;
nodes = (
(413,298,l),
(434,319,o),
(478,350,o),
(526,350,cs),
(581,350,o),
(610,327,o),
(610,280,cs),
(610,166,o),
(547,132,o),
(520,100,c),
(620,0,l),
(653,72,o),
(680,155,o),
(680,200,cs),
(680,293,o),
(616,413,o),
(490,413,cs),
(442,413,o),
(385,383,o),
(357,354,c)
);
}
);
width = 720;
},
{
layerId = "2ACD8D93-9596-4DD4-A1F7-681CA80B893F";
shapes = (
{
closed = 0;
nodes = (
(378,308,l),
(414,344,o),
(456,359,o),
(495,359,cs),
(586,358,o),
(629,308,o),
(629,234,cs),
(629,181,o),
(582,122,o),
(536,60,c)
);
},
{
closed = 0;
nodes = (
(160,361,l),
(273,361,o),
(384,390,o),
(384,511,cs),
(384,611,o),
(310,658,o),
(243,658,cs)
);
},
{
closed = 0;
nodes = (
(80,183,l),
(80,83,o),
(162,41,o),
(247,41,cs),
(343,41,o),
(424,94,o),
(424,205,cs),
(424,361,o),
(261,362,o),
(180,361,c)
);
},
{
closed = 1;
nodes = (
(349.716,336.284,l),
(393.826,380.395,o),
(446.368,399.057,o),
(495.224,399.,cs),
(609.955,397.824,o),
(669,328.403,o),
(669,234,cs),
(669,175.143,o),
(629.373,118.545,o),
(585.87,60,c),
(486.342,59.988,l),
(535.544,127.506,o),
(589,190.956,o),
(589,234,cs),
(589,281.584,o),
(567.836,318.195,o),
(494.783,318.998,c),
(460.845,318.998,o),
(429.948,303.38,o),
(406.284,279.716,c)
);
},
{
closed = 1;
nodes = (
(160,401,l),
(276.064,401,o),
(344,430.745,o),
(344,511,cs),
(344,588.428,o),
(289.824,619.057,o),
(242.994,622.082,c),
(243,698.003,l),
(333.251,698.003,o),
(424,632.133,o),
(424,511,cs),
(424,432.632,o),
(384.585,321,o),
(160,321,c)
);
},
{
closed = 1;
nodes = (
(120,183,l),
(120,115.453,o),
(172.059,81,o),
(247,81,cs),
(327.674,81,o),
(384,122.298,o),
(384,205,cs),
(384,301.535,o),
(305.703,322.568,o),
(179.992,320.997,c),
(180,401.003,l),
(244.061,401.784,o),
(464,406.572,o),
(464,205,cs),
(464,74.166,o),
(368.188,1,o),
(247,1,cs),
(134.48,1,o),
(40,64.123,o),
(40,183,c)
);
},
{
attr = {
strokeWidth = 76;
};
closed = 0;
nodes = (
(-16,660,l),
(769,660,l)
);
}
);
width = 680;
}
);
unicode = 2314;
},
{
color = 7;
glyphname = "e-deva";
layers = (
{
layerId = "F57DB3D0-3720-4424-A829-EC3295753544";
associatedMasterId = "2ACD8D93-9596-4DD4-A1F7-681CA80B893F";
name = 1;
shapes = (
{
closed = 1;
nodes = (
(-130,700,l),
(519,700,l),
(589,620,l),
(-60,620,l)
);
},
{
closed = 1;
nodes = (
(360,628,l),
(360,392,l),
(360,310,o),
(334,300,o),
(264,300,cs),
(244,300,o),
(220,300,o),
(220,300,cs),
(220,300,o),
(240,260,o),
(240,260,cs),
(295,244,o),
(305,240,o),
(325,240,cs),
(407,240,o),
(440,296,o),
(440,370,c),
(440,629,l)
);
},
{
closed = 1;
nodes = (
(40,640,l),
(120,640,l),
(120,270,ls),
(120,200,o),
(168,141,o),
(231,100,c),
(420,100,l),
(420,-20,l),
(309,-20,o),
(40,147,o),
(40,300,cs)
);
}
);
width = 480;
},
{
layerId = "2ACD8D93-9596-4DD4-A1F7-681CA80B893F";
width = 485;
}
);
unicode = 2319;
},
{
color = 7;
glyphname = "ai-deva";
layers = (
{
layerId = "F57DB3D0-3720-4424-A829-EC3295753544";
associatedMasterId = "2ACD8D93-9596-4DD4-A1F7-681CA80B893F";
name = 1;
shapes = (
{
closed = 1;
nodes = (
(100,640,l),
(180,640,l),
(180,270,ls),
(180,200,o),
(228,141,o),
(291,100,c),
(480,100,l),
(480,-20,l),
(369,-20,o),
(100,147,o),
(100,300,cs)
);
},
{
closed = 1;
nodes = (
(-70,700,l),
(579,700,l),
(649,620,l),
(0,620,l)
);
},
{
closed = 1;
nodes = (
(439,647,l),
(439,737,o),
(356,900,o),
(261,900,cs),
(236,900,o),
(192,874,o),
(180,850,c),
(120,959,l),
(148,974,o),
(176,980,o),
(212,980,cs),
(356,980,o),
(486,833,o),
(486,647,c)
);
},
{
closed = 1;
nodes = (
(420,628,l),
(500,629,l),
(500,370,l),
(500,296,o),
(467,240,o),
(385,240,cs),
(365,240,o),
(355,244,o),
(300,260,cs),
(300,260,o),
(280,300,o),
(280,300,cs),
(280,300,o),
(304,300,o),
(324,300,cs),
(394,300,o),
(420,310,o),
(420,392,c)
);
}
);
width = 540;
},
{
layerId = "2ACD8D93-9596-4DD4-A1F7-681CA80B893F";
width = 485;
}
);
unicode = 2320;
},
{
color = 7;
glyphname = "ocandra-deva";
layers = (
{
layerId = "F57DB3D0-3720-4424-A829-EC3295753544";
associatedMasterId = "2ACD8D93-9596-4DD4-A1F7-681CA80B893F";
name = 1;
shapes = (
{
attr = {
};
closed = 1;
nodes = (
(445,700,l),
(1094,700,l),
(1164,620,l),
(515,620,l)
);
},
{
closed = 1;
nodes = (
(110,120,l),
(110,120,o),
(151,90,o),
(240,90,cs),
(352,90,o),
(400,124,o),
(400,214,cs),
(400,299,o),
(363,351,o),
(305,350,c),
(315,372,l),
(410,372,o),
(480,295,o),
(480,192,cs),
(480,86,o),
(394,10,o),
(290,10,cs),
(150,10,o),
(10,142,o),
(10,260,c),
(110,260,l)
);
},
{
closed = 1;
nodes = (
(179,630,o),
(150,578,o),
(150,560,c),
(70,650,l),
(95,681,o),
(145,700,o),
(203,700,cs),
(326,700,o),
(430,609,o),
(430,501,cs),
(430,401,o),
(340,320,o),
(230,320,c),
(170,420,l),
(325,420,o),
(360,440,o),
(360,530,cs),
(360,605,o),
(341,630,o),
(251,630,cs)
);
},
{
closed = 1;
nodes = (
(681,394,l),
(680,300,l),
(386,300,l),
(359,367,l)
);
},
{
closed = 1;
nodes = (
(619,63,l),
(623,378,l),
(613,660,l),
(705,660,l),
(697,349,l),
(699,63,l)
);
},
{
closed = 1;
nodes = (
(644,163,l),
(697,123,l),
(707,-23,l),
(703,-23,l),
(579,37,l),
(579,41,l)
);
},
{
closed = 1;
nodes = (
(861,63,l),
(865,378,l),
(855,660,l),
(947,660,l),
(939,349,l),
(941,63,l)
);
},
{
closed = 1;
nodes = (
(886,163,l),
(939,123,l),
(949,-23,l),
(945,-23,l),
(821,37,l),
(821,41,l)
);
},
{
closed = 1;
nodes = (
(970,945,l),
(970,831,o),
(909,770,o),
(797,770,cs),
(671,770,o),
(600,847,o),
(600,982,c),
(640,950,l),
(640,870,o),
(678,840,o),
(780,840,cs),
(878,840,o),
(900,866,o),
(900,980,c)
);
}
);
width = 960;
},
{
layerId = "2ACD8D93-9596-4DD4-A1F7-681CA80B893F";
shapes = (
{
attr = {
strokeWidth = 80;
};
closed = 0;
nodes = (
(640,627,l),
(640,0,l)
);
},
{
attr = {
strokeWidth = 80;
};
closed = 0;
nodes = (
(438,660,l),
(983,660,l)
);
},
{
attr = {
strokeWidth = 80;
};
closed = 0;
nodes = (
(140,382,l),
(191,382,o),
(330,376,o),
(355,503,cs),
(395,700,o),
(103,717,o),
(103,561,c)
);
},
{
attr = {
strokeWidth = 80;
};
closed = 0;
nodes = (
(60,201,l),
(52,28,o),
(390,6,o),
(398,200,cs),
(405,377,o),
(239,384,o),
(157,383,c)
);
},
{
attr = {
strokeWidth = 80;
};
closed = 0;
nodes = (
(369,320,l),
(606,320,l)
);
},
{
attr = {
strokeWidth = 80;
};
closed = 0;
nodes = (
(839,627,l),
(839,0,l)
);
},
{
attr = {
strokeWidth = 80;
};
closed = 0;
nodes = (
(905,977,l),
(921,733,o),
(595,727,o),
(614,992,c)
);
}
);
width = 960;
}
);
unicode = 2321;
},
{
color = 7;
glyphname = "o-deva";
layers = (
{
layerId = "F57DB3D0-3720-4424-A829-EC3295753544";
associatedMasterId = "2ACD8D93-9596-4DD4-A1F7-681CA80B893F";
name = 1;
shapes = (
{
attr = {
};
closed = 1;
nodes = (
(445,700,l),
(1094,700,l),
(1164,620,l),
(515,620,l)
);
},
{
attr = {
};
closed = 1;
nodes = (
(879,647,l),
(879,737,o),
(796,900,o),
(701,900,cs),
(676,900,o),
(632,874,o),
(620,850,c),
(560,959,l),
(588,974,o),
(616,980,o),
(652,980,cs),
(796,980,o),
(926,833,o),
(926,647,c)
);
},
{
closed = 1;
nodes = (
(109,120,l),
(109,120,o),
(150,90,o),
(239,90,cs),
(351,90,o),
(399,124,o),
(399,214,cs),
(399,299,o),
(362,351,o),
(304,350,c),
(314,372,l),
(409,372,o),
(479,295,o),
(479,192,cs),
(479,86,o),
(393,10,o),
(289,10,cs),
(149,10,o),
(9,142,o),
(9,260,c),
(109,260,l)
);
},
{
closed = 1;
nodes = (
(178,630,o),
(149,578,o),
(149,560,c),
(69,650,l),
(94,681,o),
(144,700,o),
(202,700,cs),
(325,700,o),
(429,609,o),
(429,501,cs),
(429,401,o),
(339,320,o),
(229,320,c),
(169,420,l),
(324,420,o),
(359,440,o),
(359,530,cs),
(359,605,o),
(340,630,o),
(250,630,cs)
);
},
{
closed = 1;
nodes = (
(680,394,l),
(679,300,l),
(385,300,l),
(358,367,l)
);
},
{
closed = 1;
nodes = (
(621,63,l),
(625,378,l),
(615,660,l),
(707,660,l),
(699,349,l),
(701,63,l)
);
},
{
closed = 1;
nodes = (
(646,163,l),
(699,123,l),
(709,-23,l),
(705,-23,l),
(581,37,l),
(581,41,l)
);
},
{
closed = 1;
nodes = (
(860,63,l),
(864,378,l),
(854,660,l),
(946,660,l),
(938,349,l),
(940,63,l)
);
},
{
closed = 1;
nodes = (
(885,163,l),
(938,123,l),
(948,-23,l),
(944,-23,l),
(820,37,l),
(820,41,l)
);
}
);
width = 1060;
},
{
layerId = "2ACD8D93-9596-4DD4-A1F7-681CA80B893F";
shapes = (
{
closed = 0;
nodes = (
(919,0,l),
(919,667,l)
);
},
{
closed = 0;
nodes = (
(659,667,l),
(659,0,l)
);
},
{
closed = 0;
nodes = (
(160,380,l),
(271,380,o),
(380,405,o),
(380,525,cs),
(380,624,o),
(307,666,o),
(241,666,cs),
(179,666,o),
(120,630,o),
(120,560,c)
);
},
{
closed = 0;
nodes = (
(80,201,l),
(80,102,o),
(161,60,o),
(245,60,cs),
(340,60,o),
(420,113,o),
(420,222,cs),
(420,377,o),
(259,381,o),
(179,380,c)
);
},
{
closed = 0;
nodes = (
(919,647,l),
(919,778,o),
(837,920,o),
(699,920,c)
);
},
{
closed = 1;
nodes = (
(959,0,l),
(879,0,l),
(879,667,l),
(959,667,l)
);
},
{
closed = 1;
nodes = (
(619,667,l),
(699,667,l),
(699,0,l),
(619,0,l)
);
},
{
closed = 1;
nodes = (
(160,420,l),
(275.367,420,o),
(340,446.43,o),
(340,525,cs),
(340,596.588,o),
(290.634,626,o),
(241,626,cs),
(191.732,626,o),
(160,599.589,o),
(160,560,c),
(80,560,l),
(80,660.411,o),
(166.268,706,o),
(241,706,cs),
(323.366,706,o),
(420,651.412,o),
(420,525,cs),
(420,363.57,o),
(266.633,340,o),
(160,340,c)
);
},
{
closed = 1;
nodes = (
(120,201,l),
(120,134.25,o),
(171.332,100,o),
(245,100,cs),
(324.576,100,o),
(380,141.216,o),
(380,222,cs),
(380,300.567,o),
(331.239,341.9,o),
(179.5,340.003,c),
(178.5,419.997,l),
(237.412,420.733,o),
(460,425.651,o),
(460,222,cs),
(460,84.784,o),
(355.424,20,o),
(245,20,cs),
(150.668,20,o),
(40,69.75,o),
(40,201,c)
);
},
{
closed = 1;
nodes = (
(883.921,647,l),
(883.921,739.199,o),
(826.004,880,o),
(699,880,c),
(699,960,l),
(831.595,960,o),
(949.686,833.326,o),
(949.686,647,c)
);
},
{
attr = {
strokeWidth = 76;
};
closed = 0;
nodes = (
(500,660,l),
(1096,660,l)
);
},
{
attr = {
strokeWidth = 76;
};
closed = 0;
nodes = (
(347,341,l),
(626,341,l)
);
}
);
width = 1079;
}
);
unicode = 2323;
},
{
color = 7;
glyphname = "au-deva";
layers = (
{
layerId = "F57DB3D0-3720-4424-A829-EC3295753544";
associatedMasterId = "2ACD8D93-9596-4DD4-A1F7-681CA80B893F";
name = 1;
shapes = (
{
attr = {
};
closed = 1;
nodes = (
(445,700,l),
(1094,700,l),
(1164,620,l),
(515,620,l)
);
},
{
attr = {
};
closed = 1;
nodes = (
(939,647,l),
(939,737,o),
(876,940,o),
(781,940,cs),
(756,940,o),
(712,924,o),
(700,900,c),
(640,999,l),
(668,1014,o),
(696,1020,o),
(732,1020,cs),
(876,1020,o),
(986,833,o),
(986,647,c)
);
},
{
attr = {
};
closed = 1;
nodes = (
(937,666,l),
(937,758,o),
(839,785,o),
(760,785,cs),
(735,785,o),
(692,769,o),
(680,745,c),
(620,840,l),
(648,855,o),
(676,861,o),
(712,861,cs),
(859,861,o),
(987,758,o),
(987,666,c)
);
},
{
closed = 1;
nodes = (
(170,260,l),
(70,260,l),
(70,142,o),
(210,10,o),
(350,10,cs),
(454,10,o),
(540,86,o),
(540,192,cs),
(540,295,o),
(470,372,o),
(375,372,c),
(365,350,l),
(423,351,o),
(460,299,o),
(460,214,cs),
(460,124,o),
(412,90,o),
(300,90,cs),
(211,90,o),
(170,120,o),
(170,120,c)
);
},
{
closed = 1;
nodes = (
(401,630,o),
(420,605,o),
(420,530,cs),
(420,440,o),
(385,420,o),
(230,420,c),
(290,320,l),
(400,320,o),
(490,401,o),
(490,501,cs),
(490,609,o),
(386,700,o),
(263,700,cs),
(205,700,o),
(155,681,o),
(130,650,c),
(210,560,l),
(210,578,o),
(239,630,o),
(311,630,cs)
);
},
{
closed = 1;
nodes = (
(419,367,l),
(446,300,l),
(740,300,l),
(741,394,l)
);
},
{
closed = 1;
nodes = (
(679,63,l),
(683,378,l),
(673,660,l),
(765,660,l),
(757,349,l),
(759,63,l)
);
},
{
closed = 1;
nodes = (
(704,163,l),
(757,123,l),
(767,-23,l),
(763,-23,l),
(639,37,l),
(639,41,l)
);
},
{
closed = 1;
nodes = (
(919,63,l),
(923,378,l),
(913,660,l),
(1005,660,l),
(997,349,l),
(999,63,l)
);
},
{
closed = 1;
nodes = (
(944,163,l),
(997,123,l),
(1007,-23,l),
(1003,-23,l),
(879,37,l),
(879,41,l)
);
}
);
width = 1079;
},
{
layerId = "2ACD8D93-9596-4DD4-A1F7-681CA80B893F";
shapes = (
{
closed = 0;
nodes = (
(938,647,l),
(938,778,o),
(871,962,o),
(710,962,c)
);
},
{
closed = 0;
nodes = (
(931,672,ls),
(886,751,o),
(762,830,o),
(668,830,c)
);
},
{
closed = 1;
nodes = (
(916.704,647,l),
(916.704,686.592,o),
(886.409,922,o),
(710,922,c),
(710,1002,l),
(879.59,1002,o),
(949.074,819.659,o),
(949.074,647,c)
);
},
{
closed = 1;
nodes = (
(911.292,660.774,l),
(892.857,693.137,o),
(791.354,790,o),
(668,790,c),
(668,870,l),
(774.304,870,o),
(893.676,766.067,o),
(943.275,678.992,c)
);
},
{
attr = {
};
closed = 1;
nodes = (
(412,300,l),
(371,360,l),
(657,382,l),
(671,300,l)
);
},
{
attr = {
};
closed = 1;
nodes = (
(445,700,l),
(1094,700,l),
(1164,620,l),
(515,620,l)
);
},
{
closed = 1;
nodes = (
(143,260,l),
(43,260,l),
(43,142,o),
(183,10,o),
(323,10,cs),
(427,10,o),
(513,86,o),
(513,192,cs),
(513,295,o),
(443,372,o),
(348,372,c),
(338,350,l),
(396,351,o),
(433,299,o),
(433,214,cs),
(433,124,o),
(385,90,o),
(273,90,cs),
(184,90,o),
(143,120,o),
(143,120,c)
);
},
{
closed = 1;
nodes = (
(374,630,o),
(393,605,o),
(393,530,cs),
(393,440,o),
(358,420,o),
(203,420,c),
(263,320,l),
(373,320,o),
(463,401,o),
(463,501,cs),
(463,609,o),
(359,700,o),
(236,700,cs),
(178,700,o),
(128,681,o),
(103,650,c),
(183,560,l),
(183,578,o),
(212,630,o),
(284,630,cs)
);
},
{
closed = 1;
nodes = (
(392,367,l),
(419,300,l),
(713,300,l),
(714,394,l)
);
},
{
closed = 1;
nodes = (
(685,63,l),
(689,378,l),
(679,660,l),
(771,660,l),
(763,349,l),
(765,63,l)
);
},
{
closed = 1;
nodes = (
(710,163,l),
(763,123,l),
(773,-23,l),
(769,-23,l),
(645,37,l),
(645,41,l)
);
},
{
closed = 1;
nodes = (
(943,63,l),
(947,378,l),
(937,660,l),
(1029,660,l),
(1021,349,l),
(1023,63,l)
);
},
{
closed = 1;
nodes = (
(968,163,l),
(1021,123,l),
(1031,-23,l),
(1027,-23,l),
(903,37,l),
(903,41,l)
);
}
);
width = 1081;
}
);
unicode = 2324;
},
{
color = 7;
glyphname = "ka-deva";
layers = (
{
layerId = "DC56A9FB-AD8D-4E99-B8E9-6ACB3D6D9B90";
associatedMasterId = "2ACD8D93-9596-4DD4-A1F7-681CA80B893F";
name = "smallCounter-Test";
shapes = (
{
attr = {
strokeWidth = 80;
};
closed = 0;
nodes = (
(420,627,l),
(420,0,l)
);
},
{
attr = {
strokeWidth = 80;
};
closed = 0;
nodes = (
(-20,660,l),
(840,660,l)
);
},
{
attr = {
strokeWidth = 80;
strokeHeight = 76;
};
closed = 0;
nodes = (
(420,207,l),
(420,207,o),
(357,150,o),
(270,150,cs),
(157,150,o),
(100,224,o),
(100,310,cs),
(100,414,o),
(167,470,o),
(270,470,cs),
(325,470,o),
(385,448,o),
(420,394,c),
(446,442,o),
(506,470,o),
(570,470,cs),
(669,470,o),
(730,409,o),
(730,310,cs),
(730,211,o),
(669,150,o),
(570,150,cs),
(558,150,o),
(547,150,o),
(533,150,c)
);
}
);
width = 820;
},
{
anchors = (
{
name = top;
position = "{390, 660}";
}
);
guides = (
{
position = "{0, 310}";
},
{
position = "{0, 660}";
}
);
layerId = "F57DB3D0-3720-4424-A829-EC3295753544";
associatedMasterId = "2ACD8D93-9596-4DD4-A1F7-681CA80B893F";
name = 1;
shapes = (
{
attr = {
};
closed = 1;
nodes = (
(-112,700,l),
(792,700,l),
(862,620,l),
(-42,620,l)
);
},
{
attr = {
};
closed = 1;
nodes = (
(361,421,l),
(322,467,o),
(253,500,o),
(192,500,cs),
(115,500,o),
(40,444,o),
(40,330,cs),
(40,221,o),
(170,140,o),
(260,140,cs),
(378,140,o),
(427,234,o),
(427,308,c),
(357,308,l),
(357,253,o),
(306,210,o),
(210,210,cs),
(135,210,o),
(120,250,o),
(120,300,cs),
(120,393,o),
(149,434,o),
(249,434,cs),
(307,434,o),
(358,418,o),
(358,418,c)
);
},
{
attr = {
};
closed = 1;
nodes = (
(336,425,o),
(339,422,o),
(343,422,cs),
(347,422,o),
(351,425,o),
(351,429,cs),
(351,433,o),
(347,437,o),
(343,437,cs),
(339,437,o),
(336,433,o),
(336,429,cs)
);
},
{
attr = {
};
closed = 1;
nodes = (
(510,158,l),
(570,80,l),
(667,99,o),
(730,163,o),
(730,270,cs),
(730,379,o),
(645,480,o),
(540,480,cs),
(437,480,o),
(355,393,o),
(353,286,c),
(426,284,l),
(428,358,o),
(475,410,o),
(560,410,cs),
(635,410,o),
(670,392,o),
(670,300,cs),
(670,202,o),
(618,160,o),
(511,160,cs),
(511,160,o),
(517,160,o),
(510,160,c)
);
},
{
closed = 1;
nodes = (
(429,63,l),
(427,349,l),
(435,660,l),
(343,660,l),
(353,378,l),
(349,63,l)
);
},
{
closed = 1;
nodes = (
(309,41,l),
(309,37,l),
(433,-23,l),
(437,-23,l),
(427,123,l),
(374,163,l)
);
}
);
width = 780;
},
{
guides = (
{
position = "{0, 310}";
}
);
layerId = "2ACD8D93-9596-4DD4-A1F7-681CA80B893F";
shapes = (
{
attr = {
strokeWidth = 80;
};
closed = 0;
nodes = (
(420,660,l),
(420,0,l)
);
},
{
attr = {
strokeWidth = 80;
strokeHeight = 76;
};
closed = 0;
nodes = (
(-31,660,l),
(849,660,l)
);
},
{
attr = {
strokeWidth = 80;
strokeHeight = 76;
};
closed = 0;
nodes = (
(419,201,l),
(419,201,o),
(353,140,o),
(260,140,cs),
(148,140,o),
(80,204,o),
(80,310,cs),
(80,416,o),
(148,482,o),
(260,482,cs),
(319,482,o),
(381,458,o),
(419,401,c),
(453,458,o),
(512,480,o),
(580,480,cs),
(679,480,o),
(740,416,o),
(740,310,cs),
(740,204,o),
(679,140,o),
(580,140,cs),
(568,140,o),
(554,141,o),
(539,141,c)
);
}
);
width = 820;
}
);
unicode = 2325;
},
{
color = 7;
glyphname = "kha-deva";
layers = (
{
layerId = "F57DB3D0-3720-4424-A829-EC3295753544";
associatedMasterId = "2ACD8D93-9596-4DD4-A1F7-681CA80B893F";
name = 1;
shapes = (
{
closed = 1;
nodes = (
(100,380,l),
(100,240,o),
(218,140,o),
(369,140,cs),
(469,140,o),
(607,188,o),
(604,307,c),
(678,304,l),
(678,146,o),
(539,60,o),
(386,60,cs),
(153,60,o),
(40,247,o),
(40,400,c)
);
},
{
closed = 1;
nodes = (
(239,575,o),
(280,524,o),
(280,462,cs),
(280,372,o),
(211,310,o),
(138,310,cs),
(98,310,o),
(57,334,o),
(45,346,c),
(40,400,l),
(79,389,o),
(75,388,o),
(110,385,cs),
(165,380,o),
(200,413,o),
(200,500,cs),
(200,563,o),
(179,612,o),
(158,640,c),
(177,640,o),
(155,640,o),
(174,640,c)
);
},
{
closed = 1;
nodes = (
(-161,700,l),
(753,700,l),
(823,620,l),
(-91,620,l)
);
},
{
closed = 1;
nodes = (
(604,63,l),
(608,378,l),
(598,660,l),
(690,660,l),
(682,349,l),
(684,63,l)
);
},
{
closed = 1;
nodes = (
(629,163,l),
(682,123,l),
(692,-23,l),
(688,-23,l),
(564,37,l),
(564,41,l)
);
},
{
closed = 1;
nodes = (
(618,457,l),
(588,494,o),
(537,530,o),
(490,530,cs),
(412,530,o),
(340,477,o),
(340,390,cs),
(340,306,o),
(443,220,o),
(530,220,cs),
(620,220,o),
(673,301,o),
(673,358,c),
(618,358,l),
(618,316,o),
(572,280,o),
(501,280,cs),
(429,280,o),
(414,314,o),
(414,367,cs),
(414,449,o),
(448,470,o),
(540,470,cs),
(581,470,o),
(617,452,o),
(617,452,c)
);
}
);
width = 760;
},
{
layerId = "2ACD8D93-9596-4DD4-A1F7-681CA80B893F";
shapes = (
{
attr = {
strokeWidth = 80;
};
closed = 0;
nodes = (
(640,660,l),
(640,0,l)
);
},
{
attr = {
strokeWidth = 80;
strokeHeight = 76;
};
closed = 0;
nodes = (
(-29,660,l),
(214,660,o),
(558,660,o),
(801,660,c)
);
},
{
attr = {
strokeWidth = 80;
strokeHeight = 76;
};
closed = 0;
nodes = (
(640,320,l),
(623,270,o),
(570,230,o),
(512,230,cs),
(440,230,o),
(370,284,o),
(370,370,c),
(370,449,o),
(430,510,o),
(509,510,cs),
(570,510,o),
(622,470,o),
(640,420,c)
);
},
{
attr = {
strokeWidth = 80;
strokeHeight = 76;
};
closed = 0;
nodes = (
(80,420,l),
(80,220,o),
(190,80,o),
(380,80,cs),
(505,80,o),
(605,141,o),
(642,240,c)
);
},
{
attr = {
strokeWidth = 80;
strokeHeight = 76;
};
closed = 0;
nodes = (
(80,660,l),
(192,660,o),
(260,603,o),
(260,510,cs),
(260,417,o),
(192,360,o),
(80,360,c)
);
}
);
width = 780;
}
);
unicode = 2326;
},
{
color = 7;
glyphname = "ga-deva";
layers = (
{
layerId = "F57DB3D0-3720-4424-A829-EC3295753544";
associatedMasterId = "2ACD8D93-9596-4DD4-A1F7-681CA80B893F";
name = 1;
shapes = (
{
closed = 1;
nodes = (
(220,664,l),
(220,140,l),
(216,140,l),
(30,316,l),
(30,320,l),
(140,320,l),
(140,664,l)
);
},
{
attr = {
};
closed = 1;
nodes = (
(-102,700,l),
(662,700,l),
(732,620,l),
(-32,620,l)
);
},
{
closed = 1;
nodes = (
(440,63,l),
(444,378,l),
(434,660,l),
(526,660,l),
(518,349,l),
(520,63,l)
);
},
{
closed = 1;
nodes = (
(465,163,l),
(518,123,l),
(528,-23,l),
(524,-23,l),
(400,37,l),
(400,41,l)
);
}
);
width = 620;
},
{
layerId = "2ACD8D93-9596-4DD4-A1F7-681CA80B893F";
shapes = (
{
attr = {
strokeWidth = 80;
};
closed = 0;
nodes = (
(440,660,l),
(440,0,l)
);
},
{
attr = {
strokeWidth = 80;
strokeHeight = 76;
};
closed = 0;
nodes = (
(-20,660,l),
(600,660,l)
);
},
{
attr = {
strokeWidth = 80;
strokeHeight = 76;
};
closed = 0;
nodes = (
(160,660,l),
(160,340,ls),
(160,260,o),
(120,240,o),
(40,240,c)
);
}
);
width = 580;
}
);
unicode = 2327;
},
{
color = 7;
glyphname = "gha-deva";
layers = (
{
layerId = "F57DB3D0-3720-4424-A829-EC3295753544";
associatedMasterId = "2ACD8D93-9596-4DD4-A1F7-681CA80B893F";
name = 1;
shapes = (
{
closed = 1;
nodes = (
(173,427,l),
(143,438,o),
(120,492,o),
(120,540,cs),
(120,587,o),
(154,622,o),
(220,622,c),
(220,698,l),
(113,698,o),
(40,639,o),
(40,550,cs),
(40,428,o),
(177,418,o),
(173,420,c)
);
},
{
closed = 1;
nodes = (
(505,370,l),
(505,275,o),
(401,190,o),
(270,190,cs),
(194,190,o),
(160,216,o),
(160,280,cs),
(160,347,o),
(195,380,o),
(268,380,cs),
(340,380,l),
(280,480,l),
(160,462,o),
(90,408,o),
(90,310,cs),
(90,204,o),
(200,130,o),
(318,130,cs),
(469,130,o),
(579,213,o),
(579,370,c)
);
},
{
closed = 1;
nodes = (
(-142,700,l),
(-72,620,l),
(702,620,l),
(632,700,l)
);
},
{
closed = 1;
nodes = (
(501,63,l),
(505,378,l),
(495,660,l),
(587,660,l),
(579,349,l),
(581,63,l)
);
},
{
closed = 1;
nodes = (
(526,163,l),
(579,123,l),
(589,-23,l),
(585,-23,l),
(461,37,l),
(461,41,l)
);
}
);
width = 680;
},
{
layerId = "2ACD8D93-9596-4DD4-A1F7-681CA80B893F";
shapes = (
{
attr = {
strokeWidth = 80;
strokeHeight = 76;
};
closed = 0;
nodes = (
(-20,660,l),
(710,660,l)
);
},
{
attr = {
strokeWidth = 80;
};
closed = 0;
nodes = (
(540,660,l),
(540,0,l)
);
},
{
attr = {
strokeWidth = 80;
strokeHeight = 76;
};
closed = 0;
nodes = (
(310,420,l),
(296,420,o),
(252,420,o),
(240,420,cs),
(139,420,o),
(80,465,o),
(80,540,cs),
(80,615,o),
(133,660,o),
(220,660,c)
);
},
{
attr = {
strokeWidth = 80;
strokeHeight = 76;
};
closed = 0;
nodes = (
(540,360,l),
(540,230,o),
(457,160,o),
(320,160,cs),
(208,160,o),
(140,213,o),
(140,300,cs),
(140,375,o),
(193,420,o),
(280,420,cs),
(293,420,o),
(317,420,o),
(320,420,c)
);
}
);
width = 680;
}
);
unicode = 2328;
},
{
color = 7;
glyphname = "nga-deva";
layers = (
{
guides = (
{
position = "{0, 553}";
}
);
layerId = "F57DB3D0-3720-4424-A829-EC3295753544";
associatedMasterId = "2ACD8D93-9596-4DD4-A1F7-681CA80B893F";
name = 1;
shapes = (
{
closed = 1;
nodes = (
(-112,700,l),
(662,700,l),
(732,620,l),
(-42,620,l)
);
},
{
closed = 1;
nodes = (
(585,223,l),
(640,280,l),
(583,337,l),
(528,280,l)
);
},
{
closed = 1;
nodes = (
(169,320,ls),
(139,320,o),
(129,330,o),
(129,362,cs),
(129,414,o),
(156,440,o),
(210,440,cs),
(439,440,l),
(439,660,l),
(359,660,l),
(359,520,l),
(210,520,ls),
(124,520,o),
(69,475,o),
(69,404,cs),
(69,322,o),
(144,240,o),
(220,240,cs),
(368,240,ls),
(419,240,o),
(429,233,o),
(429,197,cs),
(429,124,o),
(378,80,o),
(249,80,cs),
(176,80,o),
(131,91,o),
(98,118,c),
(149,180,l),
(39,240,l),
(39,91,o),
(130,0,o),
(279,0,cs),
(408,0,o),
(499,68,o),
(499,162,cs),
(499,246,o),
(425,320,o),
(339,320,cs)
);
}
);
width = 640;
},
{
layerId = "2ACD8D93-9596-4DD4-A1F7-681CA80B893F";
shapes = (
{
attr = {
strokeWidth = 80;
};
closed = 0;
nodes = (
(540,280,l),
(620,280,l)
);
},
{
attr = {
strokeWidth = 80;
};
closed = 0;
nodes = (
(420,661,l),
(420,480,l),
(240,480,ls),
(165,480,o),
(120,442,o),
(120,380,cs),
(120,318,o),
(165,280,o),
(240,280,cs),
(350,280,ls),
(434,280,o),
(480,240,o),
(480,170,cs),
(480,86,o),
(416,40,o),
(300,40,cs),
(170,40,o),
(100,100,o),
(100,200,c)
);
},
{
attr = {
strokeWidth = 76;
};
closed = 0;
nodes = (
(-20,660,l),
(640,660,l)
);
}
);
width = 620;
}
);
unicode = 2329;
},
{
color = 7;
glyphname = "ca-deva";
layers = (
{
layerId = "F57DB3D0-3720-4424-A829-EC3295753544";
associatedMasterId = "2ACD8D93-9596-4DD4-A1F7-681CA80B893F";
name = 1;
shapes = (
{
closed = 1;
nodes = (
(486,330,l),
(486,244,o),
(434,190,o),
(320,190,cs),
(262,190,o),
(200,203,o),
(200,260,cs),
(200,328,o),
(292,383,o),
(299,383,c),
(255,438,l),
(263,438,o),
(140,410,o),
(140,300,cs),
(140,198,o),
(238,120,o),
(370,120,cs),
(518,120,o),
(558,263,o),
(558,330,c)
);
},
{
closed = 1;
nodes = (
(78,380,l),
(354,380,l),
(284,460,l),
(8,460,l)
);
},
{
closed = 1;
nodes = (
(-12,620,l),
(762,620,l),
(692,700,l),
(-82,700,l)
);
},
{
closed = 1;
nodes = (
(560,63,l),
(558,349,l),
(566,660,l),
(474,660,l),
(484,378,l),
(480,63,l)
);
},
{
closed = 1;
nodes = (
(440,41,l),
(440,37,l),
(564,-23,l),
(568,-23,l),
(558,123,l),
(505,163,l)
);
}
);
width = 660;
},
{
layerId = "2ACD8D93-9596-4DD4-A1F7-681CA80B893F";
shapes = (
{
attr = {
strokeWidth = 80;
};
closed = 0;
nodes = (
(520,661,l),
(520,0,l)
);
},
{
attr = {
strokeWidth = 80;
};
closed = 0;
nodes = (
(520,360,l),
(520,230,o),
(456,160,o),
(330,160,cs),
(204,160,o),
(160,231,o),
(160,300,cs),
(160,377,o),
(212,420,o),
(300,420,c)
);
},
{
attr = {
strokeWidth = 76;
};
closed = 0;
nodes = (
(-60,660,l),
(699,660,l)
);
},
{
attr = {
strokeWidth = 76;
};
closed = 0;
nodes = (
(20,420,l),
(340,420,l)
);
}
);
width = 660;
}
);
unicode = 2330;
},
{
color = 7;
glyphname = "cha-deva";
layers = (
{
anchors = (
{
name = top;
position = "{500, 660}";
},
{
name = bottom;
position = "{400, 0}";
},
{
name = left;
position = "{-222, 350}";
},
{
name = anutop;
position = "{500, 980}";
}
);
layerId = "F57DB3D0-3720-4424-A829-EC3295753544";
associatedMasterId = "2ACD8D93-9596-4DD4-A1F7-681CA80B893F";
name = 1;
shapes = (
{
closed = 1;
nodes = (
(-172,700,l),
(-102,620,l),
(792,620,l),
(722,700,l)
);
},
{
closed = 1;
nodes = (
(226,380,l),
(170,388,o),
(120,455,o),
(120,520,cs),
(120,583,o),
(167,622,o),
(240,622,c),
(240,700,l),
(125,700,o),
(40,627,o),
(40,530,cs),
(40,438,o),
(117,373,o),
(225,373,cs),
(226,373,l)
);
},
{
closed = 1;
nodes = (
(660,376,o),
(591,460,o),
(495,460,cs),
(418,460,o),
(360,406,o),
(360,334,cs),
(360,255,o),
(428,196,o),
(520,196,cs),
(538,196,o),
(555,198,o),
(582,204,c),
(582,231,l),
(557,228,o),
(551,228,o),
(526,228,cs),
(475,228,o),
(440,269,o),
(440,328,cs),
(440,383,o),
(469,419,o),
(513,419,cs),
(559,419,o),
(580,381,o),
(580,296,cs),
(580,141,o),
(511,80,o),
(335,80,cs),
(206,80,o),
(160,113,o),
(160,207,cs),
(160,291,o),
(198,320,o),
(311,320,c),
(240,407,l),
(149,399,o),
(80,326,o),
(80,238,cs),
(80,112,o),
(223,0,o),
(385,0,cs),
(544,0,o),
(660,109,o),
(660,260,cs)
);
},
{
closed = 1;
nodes = (
(456,41,o),
(474,23,o),
(496,23,cs),
(518,23,o),
(536,41,o),
(536,64,cs),
(536,86,o),
(518,104,o),
(496,104,cs),
(474,104,o),
(456,86,o),
(456,64,cs)
);
},
{
closed = 1;
nodes = (
(546,660,l),
(458,660,l),
(462,445,l),
(542,445,l)
);
}
);
width = 700;
},
{
layerId = "2ACD8D93-9596-4DD4-A1F7-681CA80B893F";
shapes = (
{
attr = {
strokeWidth = 80;
};
closed = 0;
nodes = (
(550,415,l),
(550,660,l)
);
},
{
attr = {
strokeWidth = 80;
};
closed = 0;
nodes = (
(300,380,l),
(264,380,ls),
(150,380,o),
(79,424,o),
(80,520,cs),
(81,607,o),
(140,660,o),
(240,660,c)
);
},
{
attr = {
strokeWidth = 80;
};
closed = 0;
nodes = (
(299,380,l),
(215,380,o),
(140,324,o),
(140,221,cs),
(140,107,o),
(233,40,o),
(378,40,cs),
(553,40,o),
(663,137,o),
(663,300,c),
(663,392,o),
(619,440,o),
(545,440,cs),
(469,440,o),
(430,390,o),
(430,324,cs),
(430,256,o),
(470,200,o),
(550,200,c),
(620,200,o),
(663,240,o),
(663,324,c)
);
},
{
attr = {
strokeWidth = 76;
};
closed = 0;
nodes = (
(-20,660,l),
(756,660,l)
);
}
);
width = 741;
}
);
unicode = 2331;
},
{
color = 7;
glyphname = "ja-deva";
layers = (
{
layerId = "F57DB3D0-3720-4424-A829-EC3295753544";
associatedMasterId = "2ACD8D93-9596-4DD4-A1F7-681CA80B893F";
name = 1;
shapes = (
{
closed = 1;
nodes = (
(530,63,l),
(534,378,l),
(524,660,l),
(616,660,l),
(608,349,l),
(610,63,l)
);
},
{
closed = 1;
nodes = (
(555,163,l),
(608,123,l),
(618,-23,l),
(614,-23,l),
(490,37,l),
(490,41,l)
);
},
{
closed = 1;
nodes = (
(-112,700,l),
(772,700,l),
(842,620,l),
(-42,620,l)
);
},
{
closed = 1;
nodes = (
(268,380,l),
(228,460,l),
(542,460,l),
(610,380,l)
);
},
{
closed = 1;
nodes = (
(71,100,o),
(36,280,o),
(40,460,c),
(43,460,l),
(150,360,l),
(150,356,l),
(90,270,l),
(90,221,o),
(147,180,o),
(247,180,cs),
(332,180,o),
(350,223,o),
(350,288,cs),
(350,348,o),
(333,368,o),
(322,383,c),
(334,384,l),
(374,364,o),
(420,298,o),
(420,240,cs),
(420,169,o),
(358,100,o),
(261,100,cs)
);
},
{
closed = 1;
nodes = (
(331,377,o),
(335,380,o),
(339,380,cs),
(343,380,o),
(347,377,o),
(347,373,cs),
(347,368,o),
(343,365,o),
(339,365,cs),
(335,365,o),
(331,368,o),
(331,373,cs)
);
}
);
width = 710;
},
{
layerId = "2ACD8D93-9596-4DD4-A1F7-681CA80B893F";
shapes = (
{
attr = {
strokeWidth = 80;
};
closed = 0;
nodes = (
(640,661,l),
(640,1,l)
);
},
{
attr = {
strokeWidth = 80;
};
closed = 0;
nodes = (
(80,400,l),
(80,300,o),
(123,140,o),
(280,140,cs),
(366,140,o),
(430,195,o),
(430,290,cs),
(430,362,o),
(396,420,o),
(280,420,c)
);
},
{
attr = {
strokeWidth = 76;
};
closed = 0;
nodes = (
(-60,660,l),
(-60,660,o),
(799,660,o),
(799,660,c)
);
},
{
attr = {
strokeWidth = 76;
};
closed = 0;
nodes = (
(280,421,l),
(620,420,l)
);
}
);
width = 780;
}
);
unicode = 2332;
},
{
color = 7;
glyphname = "jha-deva";
layers = (
{
layerId = "F57DB3D0-3720-4424-A829-EC3295753544";
associatedMasterId = "2ACD8D93-9596-4DD4-A1F7-681CA80B893F";
name = 1;
shapes = (
{
closed = 1;
nodes = (
(-112,700,l),
(812,700,l),
(882,620,l),
(-42,620,l)
);
},
{
closed = 1;
nodes = (
(336,310,l),
(674,324,l),
(632,240,l),
(336,240,l)
);
},
{
closed = 1;
nodes = (
(-18,-42,l),
(-18,-38,l)
);
},
{
closed = 1;
nodes = (
(318,320,ls),
(401,320,o),
(473,258,o),
(473,177,cs),
(473,86,o),
(385,20,o),
(260,20,cs),
(115,20,o),
(27,108,o),
(27,253,c),
(134,194,l),
(84,134,l),
(116,108,o),
(160,100,o),
(231,100,cs),
(356,100,o),
(405,140,o),
(405,211,cs),
(405,246,o),
(395,240,o),
(346,240,cs),
(202,240,ls),
(129,240,o),
(56,332,o),
(56,412,cs),
(56,481,o),
(109,520,o),
(193,520,cs),
(340,520,l),
(340,660,l),
(420,660,l),
(420,440,l),
(193,440,ls),
(140,440,o),
(114,421,o),
(114,371,cs),
(114,340,o),
(124,320,o),
(153,320,cs)
);
},
{
closed = 1;
nodes = (
(260,-130,l),
(95,-130,o),
(29,63,o),
(29,240,c),
(128,186,l),
(38,135,o),
(121,5,o),
(147,-30,c),
(179,-40,o),
(231,-40,o),
(260,-30,c)
);
},
{
closed = 1;
nodes = (
(600,64,l),
(604,379,l),
(594,661,l),
(686,661,l),
(678,350,l),
(680,64,l)
);
},
{
closed = 1;
nodes = (
(625,164,l),
(678,124,l),
(688,-22,l),
(684,-22,l),
(560,38,l),
(560,42,l)
);
}
);
width = 800;
},
{
guides = (
{
angle = 90;
position = "{479, 0}";
}
);
layerId = "2ACD8D93-9596-4DD4-A1F7-681CA80B893F";
shapes = (
{
attr = {
strokeWidth = 80;
};
closed = 0;
nodes = (
(640,641,l),
(640,0,l)
);
},
{
attr = {
strokeWidth = 80;
};
closed = 0;
nodes = (
(619,300,l),
(340,300,l)
);
},
{
attr = {
strokeWidth = 80;
};
closed = 0;
nodes = (
(80,221,l),
(80,175,o),
(80,21,o),
(80,-60,c)
);
},
{
attr = {
strokeWidth = 80;
};
closed = 0;
nodes = (
(380,661,l),
(380,499,l),
(211,499,ls),
(141,499,o),
(99,456,o),
(99,398,cs),
(99,340,o),
(141,301,o),
(211,301,cs),
(314,301,ls),
(393,301,o),
(439,267,o),
(439,201,cs),
(439,123,o),
(376,80,o),
(267,80,cs),
(146,80,o),
(80,136,o),
(80,229,c)
);
},
{
attr = {
strokeWidth = 76;
};
closed = 0;
nodes = (
(-20,660,l),
(766,660,l)
);
}
);
width = 780;
}
);
unicode = 2333;
},
{
color = 7;
glyphname = "nya-deva";
layers = (
{
layerId = "F57DB3D0-3720-4424-A829-EC3295753544";
associatedMasterId = "2ACD8D93-9596-4DD4-A1F7-681CA80B893F";
name = 1;
shapes = (
{
attr = {
};
closed = 1;
nodes = (
(-131,700,l),
(-61,620,l),
(853,620,l),
(783,700,l)
);
},
{
attr = {
};
closed = 1;
nodes = (
(422,261,l),
(628,261,l),
(585,343,l),
(387,317,l)
);
},
{
attr = {
};
closed = 1;
nodes = (
(65,359,l),
(24,238,o),
(119,120,o),
(255,120,cs),
(368,120,o),
(460,204,o),
(460,307,cs),
(460,404,o),
(375,480,o),
(268,480,cs),
(218,480,o),
(171,463,o),
(138,432,c),
(205,372,l),
(228,404,o),
(274,426,o),
(320,426,cs),
(364,426,o),
(380,406,o),
(380,353,cs),
(380,249,o),
(318,186,o),
(214,186,cs),
(154,186,o),
(120,207,o),
(120,244,cs),
(120,268,o),
(134,296,o),
(154,313,c)
);
},
{
closed = 1;
nodes = (
(641,63,l),
(639,349,l),
(647,660,l),
(555,660,l),
(565,378,l),
(561,63,l)
);
},
{
closed = 1;
nodes = (
(521,41,l),
(521,37,l),
(645,-23,l),
(649,-23,l),
(639,123,l),
(586,163,l)
);
}
);
width = 740;
},
{
layerId = "2ACD8D93-9596-4DD4-A1F7-681CA80B893F";
shapes = (
{
closed = 0;
nodes = (
(600,660,l),
(600,0,l)
);
},
{
closed = 0;
nodes = (
(590,300,l),
(399,300,l)
);
},
{
closed = 0;
nodes = (
(137,416,l),
(168,440,o),
(195,450,o),
(234,450,cs),
(330,450,o),
(400,394,o),
(400,298,cs),
(400,202,o),
(339,130,o),
(240,130,cs),
(127,130,o),
(59,193,o),
(59,330,c)
);
},
{
closed = 1;
nodes = (
(560.,660.008,l),
(640,660,l),
(640,0,l),
(560,0,l)
);
},
{
closed = 1;
nodes = (
(590,340,l),
(589.992,260.,l),
(399,260,l),
(399,340,l)
);
},
{
closed = 1;
nodes = (
(137,464.459,l),
(166.354,481.973,o),
(196.319,490,o),
(234,490,cs),
(353.969,490,o),
(440,414.62,o),
(440,298,cs),
(440,178.8,o),
(360.158,90,o),
(240,90,cs),
(107.867,90,o),
(19,167.618,o),
(19,330,c),
(99,330,l),
(99,213.002,o),
(151.125,170,o),
(240,170,cs),
(313.867,170,o),
(360,220.921,o),
(360,298,cs),
(360,367.311,o),
(312.805,410,o),
(234,410,cs),
(202.306,410,o),
(175.671,405.686,o),
(136.994,380.538,c)
);
},
{
attr = {
strokeWidth = 76;
};
closed = 0;
nodes = (
(-20,660,l),
(766,660,l)
);
}
);
width = 740;
}
);
unicode = 2334;
},
{
color = 7;
glyphname = "tta-deva";
layers = (
{
anchors = (
{
name = top;
position = "{420, 660}";
},
{
name = bottom;
position = "{326, 0}";
},
{
name = anutop;
position = "{420, 980}";
}
);
layerId = "F57DB3D0-3720-4424-A829-EC3295753544";
associatedMasterId = "2ACD8D93-9596-4DD4-A1F7-681CA80B893F";
name = 1;
shapes = (
{
closed = 1;
nodes = (
(380,660,l),
(460,660,l),
(460,420,l),
(267,420,ls),
(156,420,o),
(120,356,o),
(120,250,cs),
(120,110,o),
(176,60,o),
(290,60,cs),
(360,60,o),
(451,136,o),
(460,201,c),
(540,110,l),
(540,90,o),
(442,0,o),
(330,0,cs),
(168,0,o),
(40,123,o),
(40,280,cs),
(40,416,o),
(134,500,o),
(267,500,cs),
(380,500,l)
);
},
{
closed = 1;
nodes = (
(-142,700,l),
(642,700,l),
(702,620,l),
(-72,620,l)
);
}
);
width = 580;
},
{
layerId = "2ACD8D93-9596-4DD4-A1F7-681CA80B893F";
shapes = (
{
attr = {
strokeWidth = 80;
};
closed = 0;
nodes = (
(420,660,l),
(420,460,l),
(280,460,ls),
(151,460,o),
(80,372,o),
(80,260,cs),
(80,125,o),
(185,40,o),
(310,40,cs),
(397,40,o),
(480,83,o),
(480,200,c)
);
},
{
attr = {
strokeWidth = 76;
};
closed = 0;
nodes = (
(-60,660,l),
(655,660,l)
);
}
);
width = 560;
}
);
unicode = 2335;
},
{
color = 7;
glyphname = "ttha-deva";
layers = (
{
anchors = (
{
name = top;
position = "{420, 660}";
},
{
name = bottom;
position = "{360, 0}";
},
{
name = anutop;
position = "{420, 980}";
}
);
layerId = "F57DB3D0-3720-4424-A829-EC3295753544";
associatedMasterId = "2ACD8D93-9596-4DD4-A1F7-681CA80B893F";
name = 1;
shapes = (
{
closed = 1;
nodes = (
(520,238,o),
(536,431,o),
(401,431,c),
(401,464,l),
(516,464,o),
(600,370,o),
(600,240,cs),
(600,98,o),
(495,0,o),
(340,0,cs),
(165,0,o),
(40,120,o),
(40,280,cs),
(40,393,o),
(143,500,o),
(268,500,cs),
(380,500,l),
(380,660,l),
(460,660,l),
(460,420,l),
(268,420,ls),
(179,420,o),
(120,361,o),
(120,250,cs),
(120,116,o),
(194,50,o),
(300,50,cs),
(415,50,o),
(520,138,o),
(520,230,cs)
);
},
{
closed = 1;
nodes = (
(-142,700,l),
(642,700,l),
(702,620,l),
(-72,620,l)
);
}
);
width = 640;
},
{
layerId = "2ACD8D93-9596-4DD4-A1F7-681CA80B893F";
shapes = (
{
attr = {
strokeWidth = 80;
};
closed = 0;
nodes = (
(391,460,l),
(529,444,o),
(560,321,o),
(560,260,cs),
(560,108,o),
(452,40,o),
(320,40,cs),
(175,40,o),
(80,134,o),
(80,260,cs),
(80,385,o),
(163,460,o),
(280,460,cs),
(380,460,l),
(380,661,l)
);
},
{
attr = {
strokeWidth = 76;
};
closed = 0;
nodes = (
(-60,660,l),
(655,660,l)
);
}
);
width = 640;
}
);
unicode = 2336;
},
{
color = 7;
glyphname = "dda-deva";
layers = (
{
layerId = "F57DB3D0-3720-4424-A829-EC3295753544";
associatedMasterId = "2ACD8D93-9596-4DD4-A1F7-681CA80B893F";
name = 1;
shapes = (
{
attr = {
};
closed = 1;
nodes = (
(-132,700,l),
(592,700,l),
(662,620,l),
(-62,620,l)
);
},
{
closed = 1;
nodes = (
(170,320,ls),
(140,320,o),
(130,330,o),
(130,362,cs),
(130,414,o),
(157,440,o),
(211,440,cs),
(440,440,l),
(440,660,l),
(360,660,l),
(360,520,l),
(211,520,ls),
(125,520,o),
(70,475,o),
(70,404,cs),
(70,322,o),
(145,240,o),
(221,240,cs),
(369,240,ls),
(420,240,o),
(430,233,o),
(430,197,cs),
(430,124,o),
(379,80,o),
(250,80,cs),
(177,80,o),
(132,91,o),
(99,118,c),
(150,180,l),
(40,240,l),
(40,91,o),
(131,0,o),
(280,0,cs),
(409,0,o),
(500,68,o),
(500,162,cs),
(500,246,o),
(426,320,o),
(340,320,cs)
);
}
);
width = 540;
},
{
layerId = "2ACD8D93-9596-4DD4-A1F7-681CA80B893F";
shapes = (
{
attr = {
strokeWidth = 76;
};
closed = 0;
nodes = (
(-20,660,l),
(586,660,l)
);
},
{
attr = {
strokeWidth = 80;
};
closed = 0;
nodes = (
(420,661,l),
(420,480,l),
(240,480,ls),
(165,480,o),
(120,442,o),
(120,380,cs),
(120,318,o),
(165,280,o),
(240,280,cs),
(350,280,ls),
(434,280,o),
(480,240,o),
(480,170,cs),
(480,86,o),
(416,40,o),
(300,40,cs),
(170,40,o),
(100,100,o),
(100,200,c)
);
}
);
width = 540;
}
);
unicode = 2337;
},
{
color = 7;
glyphname = "ddha-deva";
layers = (
{
anchors = (
{
name = top;
position = "{420, 660}";
},
{
name = bottom;
position = "{337, 0}";
},
{
name = anutop;
position = "{420, 980}";
}
);
layerId = "F57DB3D0-3720-4424-A829-EC3295753544";
associatedMasterId = "2ACD8D93-9596-4DD4-A1F7-681CA80B893F";
name = 1;
shapes = (
{
closed = 1;
nodes = (
(-166,700,l),
(618,700,l),
(678,620,l),
(-96,620,l)
);
},
{
closed = 1;
nodes = (
(480,242,o),
(456,274,o),
(418,274,cs),
(381,274,o),
(360,244,o),
(360,193,cs),
(360,137,o),
(388,95,o),
(425,95,cs),
(450,95,o),
(465,115,o),
(465,115,c),
(466,86,l),
(362,60,o),
(280,109,o),
(280,196,cs),
(280,263,o),
(326,310,o),
(391,310,cs),
(476,310,o),
(550,239,o),
(550,157,cs),
(550,66,o),
(460,0,o),
(337,0,cs),
(171,0,o),
(40,116,o),
(40,264,cs),
(40,398,o),
(118,500,o),
(267,500,cs),
(380,500,l),
(380,660,l),
(460,660,l),
(460,420,l),
(267,420,ls),
(163,420,o),
(120,354,o),
(120,236,cs),
(120,86,o),
(195,70,o),
(302,70,cs),
(418,70,o),
(480,106,o),
(480,191,cs)
);
}
);
width = 580;
},
{
layerId = "2ACD8D93-9596-4DD4-A1F7-681CA80B893F";
shapes = (
{
attr = {
strokeWidth = 80;
};
closed = 0;
nodes = (
(340,160,l),
(340,227,o),
(368,260,o),
(422,260,cs),
(486,260,o),
(510,213,o),
(510,166,cs),
(510,82,o),
(433,40,o),
(330,40,cs),
(179,40,o),
(80,129,o),
(80,261,cs),
(80,372,o),
(150,460,o),
(280,460,cs),
(420,460,l),
(420,660,l)
);
},
{
attr = {
strokeWidth = 76;
};
closed = 0;
nodes = (
(-20,660,l),
(600,660,l)
);
}
);
width = 580;
}
);
unicode = 2338;
},
{
color = 7;
glyphname = "nna-deva";
layers = (
{
layerId = "F57DB3D0-3720-4424-A829-EC3295753544";
associatedMasterId = "2ACD8D93-9596-4DD4-A1F7-681CA80B893F";
name = 1;
shapes = (
{
closed = 1;
nodes = (
(599,63,l),
(603,378,l),
(593,660,l),
(685,660,l),
(677,349,l),
(679,63,l)
);
},
{
closed = 1;
nodes = (
(624,163,l),
(677,123,l),
(687,-23,l),
(683,-23,l),
(559,37,l),
(559,41,l)
);
},
{
closed = 1;
nodes = (
(-142,700,l),
(852,700,l),
(922,620,l),
(-72,620,l)
);
},
{
closed = 1;
nodes = (
(360,660,l),
(440,660,l),
(440,432,ls),
(440,289,o),
(375,220,o),
(260,220,cs),
(153,220,o),
(80,304,o),
(80,402,cs),
(80,660,l),
(160,660,l),
(160,382,ls),
(160,313,o),
(152,270,o),
(240,270,cs),
(320,270,o),
(360,311,o),
(360,412,cs)
);
}
);
width = 780;
},
{
layerId = "2ACD8D93-9596-4DD4-A1F7-681CA80B893F";
shapes = (
{
attr = {
strokeWidth = 80;
};
closed = 0;
nodes = (
(400,660,l),
(400,380,l),
(400,290,o),
(350,240,o),
(260,240,cs),
(170,240,o),
(120,290,o),
(120,380,cs),
(120,661,l)
);
},
{
attr = {
strokeWidth = 80;
};
closed = 0;
nodes = (
(640,661,l),
(640,0,l)
);
},
{
attr = {
strokeWidth = 76;
};
closed = 0;
nodes = (
(-20,660,l),
(800,660,l)
);
}
);
width = 780;
}
);
unicode = 2339;
},
{
color = 7;
glyphname = "ta-deva";
layers = (
{
layerId = "F57DB3D0-3720-4424-A829-EC3295753544";
associatedMasterId = "2ACD8D93-9596-4DD4-A1F7-681CA80B893F";
name = 1;
shapes = (
{
closed = 1;
nodes = (
(420,63,l),
(424,378,l),
(414,660,l),
(506,660,l),
(498,349,l),
(500,63,l)
);
},
{
closed = 1;
nodes = (
(445,163,l),
(498,123,l),
(508,-23,l),
(504,-23,l),
(380,37,l),
(380,41,l)
);
},
{
closed = 1;
nodes = (
(450,450,l),
(450,370,l),
(230,370,ls),
(164,370,o),
(120,335,o),
(120,240,cs),
(120,125,o),
(134,20,o),
(280,20,c),
(280,-20,l),
(207,-20,o),
(40,110,o),
(40,270,cs),
(40,380,o),
(118,450,o),
(230,450,cs)
);
},
{
closed = 1;
nodes = (
(280,-20,l),
(186,27,l),
(103,100,l),
(280,100,l)
);
},
{
closed = 1;
nodes = (
(110,104,o),
(116,110,o),
(125,110,cs),
(133,110,o),
(139,104,o),
(139,96,cs),
(139,87,o),
(133,81,o),
(125,81,cs),
(116,81,o),
(110,87,o),
(110,96,cs)
);
},
{
closed = 1;
nodes = (
(-82,700,l),
(652,700,l),
(722,620,l),
(-12,620,l)
);
}
);
width = 600;
},
{
layerId = "2ACD8D93-9596-4DD4-A1F7-681CA80B893F";
shapes = (
{
attr = {
strokeWidth = 80;
lineCapEnd = 4;
};
closed = 0;
nodes = (
(460,660,l),
(460,0,l)
);
},
{
attr = {
strokeWidth = 80;
lineCapEnd = 4;
};
closed = 0;
nodes = (
(460,400,l),
(230,400,ls),
(135,400,o),
(80,352,o),
(80,270,cs),
(80,192,o),
(130,96,o),
(210,0,c)
);
},
{
attr = {
strokeWidth = 76;
};
closed = 0;
nodes = (
(-20,660,l),
(620,660,l)
);
}
);
width = 600;
}
);
unicode = 2340;
},
{
color = 7;
glyphname = "tha-deva";
layers = (
{
guides = (
{
angle = 90;
position = "{62, 0}";
}
);
layerId = "F57DB3D0-3720-4424-A829-EC3295753544";
associatedMasterId = "2ACD8D93-9596-4DD4-A1F7-681CA80B893F";
name = 1;
shapes = (
{
attr = {
};
closed = 1;
nodes = (
(90,410,l),
(90,352,o),
(130,200,o),
(283,200,cs),
(425,200,o),
(463,269,o),
(463,340,c),
(533,340,l),
(533,259,o),
(498,120,o),
(313,120,cs),
(165,120,o),
(40,252,o),
(40,435,c)
);
},
{
attr = {
};
closed = 1;
nodes = (
(250,630,o),
(232,620,o),
(140,620,c),
(140,620,o),
(140,519,o),
(140,520,c),
(140,520,o),
(40,580,o),
(40,580,c),
(40,621,o),
(69,700,o),
(151,700,cs),
(237,700,o),
(320,606,o),
(320,507,cs),
(320,426,o),
(249,340,o),
(163,340,cs),
(123,340,o),
(75,356,o),
(55,376,c),
(50,430,l),
(83,416,o),
(112,415,o),
(140,415,cs),
(216,415,o),
(250,457,o),
(250,560,cs)
);
},
{
closed = 1;
nodes = (
(459,63,l),
(463,378,l),
(453,660,l),
(545,660,l),
(537,349,l),
(539,63,l)
);
},
{
closed = 1;
nodes = (
(484,163,l),
(537,123,l),
(547,-23,l),
(543,-23,l),
(419,37,l),
(419,41,l)
);
},
{
closed = 1;
nodes = (
(357,700,l),
(641,700,l),
(711,620,l),
(427,620,l)
);
}
);
width = 640;
},
{
layerId = "2ACD8D93-9596-4DD4-A1F7-681CA80B893F";
shapes = (
{
attr = {
strokeWidth = 80;
};
closed = 0;
nodes = (
(80,540,l),
(80,588,o),
(100,662,o),
(187,662,cs),
(254,662,o),
(290,617,o),
(290,533,cs),
(290,428,o),
(233,380,o),
(80,380,c)
);
},
{
attr = {
strokeWidth = 80;
};
closed = 0;
nodes = (
(480,660,l),
(480,0,l)
);
},
{
attr = {
strokeWidth = 80;
};
closed = 0;
nodes = (
(80,420,l),
(80,272,o),
(139,160,o),
(290,160,cs),
(429,160,o),
(480,254,o),
(480,320,c)
);
},
{
attr = {
strokeWidth = 76;
};
closed = 0;
nodes = (
(380,660,l),
(660,660,l)
);
}
);
width = 620;
}
);
unicode = 2341;
},
{
color = 7;
glyphname = "da-deva";
layers = (
{
anchors = (
{
name = top;
position = "{400, 680}";
},
{
name = bottom;
position = "{344, -13}";
},
{
name = anutop;
position = "{400, 980}";
}
);
layerId = "F57DB3D0-3720-4424-A829-EC3295753544";
associatedMasterId = "2ACD8D93-9596-4DD4-A1F7-681CA80B893F";
name = 1;
shapes = (
{
attr = {
};
closed = 1;
nodes = (
(-166,700,l),
(618,700,l),
(678,620,l),
(-96,620,l)
);
},
{
attr = {
};
closed = 1;
nodes = (
(180,70,o),
(40,172,o),
(40,300,cs),
(40,421,o),
(107,520,o),
(283,520,cs),
(360,520,l),
(360,680,l),
(440,680,l),
(440,440,l),
(283,440,ls),
(166,440,o),
(120,393,o),
(120,280,cs),
(120,184,o),
(143,140,o),
(270,140,cs),
(319,140,o),
(377,155,o),
(407,190,c),
(400,300,l),
(410,291,o),
(520,224,o),
(520,220,c),
(482,118,o),
(420,70,o),
(310,70,cs)
);
},
{
attr = {
};
closed = 1;
nodes = (
(477,30,l),
(414,30,l),
(408,190,l),
(477,170,l)
);
},
{
attr = {
};
closed = 0;
nodes = (
(618,700,l),
(-166,700,l)
);
},
{
attr = {
};
closed = 1;
nodes = (
(445,115,l),
(475,75,l),
(492,-71,l),
(488,-71,l),
(360,-11,l),
(360,-7,l)
);
}
);
width = 520;
},
{
layerId = "2ACD8D93-9596-4DD4-A1F7-681CA80B893F";
shapes = (
{
attr = {
strokeWidth = 80;
};
closed = 0;
nodes = (
(440,255,l),
(440,176,o),
(374,120,o),
(280,120,c),
(155,120,o),
(80,191,o),
(80,305,cs),
(80,419,o),
(156,480,o),
(290,480,cs),
(400,480,l),
(400,658,l)
);
},
{
attr = {
strokeWidth = 80;
};
closed = 0;
nodes = (
(440,280,l),
(440,0,l)
);
},
{
attr = {
strokeWidth = 76;
};
closed = 0;
nodes = (
(-20,660,l),
(-20,660,o),
(578,660,o),
(578,660,c)
);
}
);
width = 520;
}
);
unicode = 2342;
},
{
color = 7;
glyphname = "dha-deva";
layers = (
{
layerId = "F57DB3D0-3720-4424-A829-EC3295753544";
associatedMasterId = "2ACD8D93-9596-4DD4-A1F7-681CA80B893F";
name = 1;
shapes = (
{
closed = 1;
nodes = (
(501,66,l),
(505,381,l),
(495,663,l),
(587,663,l),
(579,352,l),
(581,66,l)
);
},
{
closed = 1;
nodes = (
(526,166,l),
(579,126,l),
(589,-20,l),
(585,-20,l),
(461,40,l),
(461,44,l)
);
},
{
attr = {
};
closed = 1;
nodes = (
(147,620,o),
(120,595,o),
(120,538,cs),
(120,486,o),
(143,438,o),
(173,427,c),
(173,420,l),
(177,418,o),
(40,427,o),
(40,556,cs),
(40,644,o),
(105,700,o),
(207,700,cs),
(238,700,o),
(285,695,o),
(300,690,c),
(300,690,o),
(301,543,o),
(301,543,c),
(301,542,o),
(227,607,o),
(210,620,c)
);
},
{
attr = {
};
closed = 1;
nodes = (
(579,370,l),
(579,213,o),
(469,130,o),
(318,130,cs),
(200,130,o),
(90,204,o),
(90,310,cs),
(90,408,o),
(160,462,o),
(280,480,c),
(340,380,l),
(268,380,ls),
(195,380,o),
(160,347,o),
(160,280,cs),
(160,216,o),
(192,190,o),
(270,190,cs),
(401,190,o),
(505,275,o),
(505,370,c)
);
},
{
attr = {
};
closed = 1;
nodes = (
(661,700,l),
(731,620,l),
(437,620,l),
(367,700,l)
);
}
);
width = 680;
},
{
layerId = "2ACD8D93-9596-4DD4-A1F7-681CA80B893F";
shapes = (
{
attr = {
strokeWidth = 80;
};
closed = 0;
nodes = (
(540,661,l),
(540,0,l)
);
},
{
attr = {
strokeWidth = 80;
};
closed = 0;
nodes = (
(310,420,l),
(296,420,o),
(252,420,o),
(252,420,cs),
(139,420,o),
(80,465,o),
(80,544,cs),
(80,612,o),
(123,660,o),
(198,660,cs),
(277,660,o),
(300,608,o),
(300,560,c)
);
},
{
attr = {
strokeWidth = 80;
};
closed = 0;
nodes = (
(540,360,l),
(540,230,o),
(457,160,o),
(324,160,cs),
(208,160,o),
(140,213,o),
(140,299,cs),
(140,375,o),
(193,420,o),
(280,420,cs),
(293,420,o),
(317,420,o),
(320,420,c)
);
},
{
attr = {
strokeWidth = 76;
};
closed = 0;
nodes = (
(419,660,l),
(715,660,l)
);
}
);
width = 680;
}
);
unicode = 2343;
},
{
color = 7;
glyphname = "na-deva";
layers = (
{
layerId = "F57DB3D0-3720-4424-A829-EC3295753544";
associatedMasterId = "2ACD8D93-9596-4DD4-A1F7-681CA80B893F";
name = 1;
shapes = (
{
closed = 1;
nodes = (
(421,63,l),
(425,378,l),
(415,660,l),
(507,660,l),
(499,349,l),
(501,63,l)
);
},
{
closed = 1;
nodes = (
(446,163,l),
(499,123,l),
(509,-23,l),
(505,-23,l),
(381,37,l),
(381,41,l)
);
},
{
closed = 1;
nodes = (
(-61,700,l),
(643,700,l),
(713,620,l),
(9,620,l)
);
},
{
closed = 1;
nodes = (
(455,400,l),
(455,320,l),
(201,320,l),
(201,160,l),
(197,160,l),
(21,396,l),
(21,400,l)
);
}
);
width = 601;
},
{
layerId = "2ACD8D93-9596-4DD4-A1F7-681CA80B893F";
shapes = (
{
attr = {
strokeWidth = 80;
};
closed = 0;
nodes = (
(440,628,l),
(440,1,l)
);
},
{
attr = {
strokeWidth = 80;
};
closed = 0;
nodes = (
(141,333,l),
(141,240,ls),
(141,201,o),
(21,360,o),
(121,360,cs),
(439,360,l)
);
},
{
attr = {
strokeWidth = 76;
};
closed = 0;
nodes = (
(-20,660,l),
(603,660,l)
);
}
);
width = 580;
}
);
unicode = 2344;
},
{
color = 7;
glyphname = "pa-deva";
layers = (
{
layerId = "F57DB3D0-3720-4424-A829-EC3295753544";
associatedMasterId = "2ACD8D93-9596-4DD4-A1F7-681CA80B893F";
name = 1;
shapes = (
{
closed = 1;
nodes = (
(400,63,l),
(404,378,l),
(394,660,l),
(486,660,l),
(478,349,l),
(480,63,l)
);
},
{
closed = 1;
nodes = (
(425,163,l),
(478,123,l),
(488,-23,l),
(484,-23,l),
(360,37,l),
(360,41,l)
);
},
{
closed = 1;
nodes = (
(-142,700,l),
(-72,620,l),
(702,620,l),
(632,700,l)
);
},
{
closed = 1;
nodes = (
(80,660,l),
(160,660,l),
(160,380,ls),
(160,320,o),
(174,270,o),
(240,270,cs),
(324,270,o),
(393,325,o),
(403,404,c),
(479,404,l),
(479,269,o),
(391,220,o),
(280,220,cs),
(137,220,o),
(80,329,o),
(80,440,cs)
);
}
);
width = 580;
},
{
layerId = "2ACD8D93-9596-4DD4-A1F7-681CA80B893F";
shapes = (
{
attr = {
strokeWidth = 80;
};
closed = 0;
nodes = (
(440,660,l),
(440,0,l)
);
},
{
attr = {
strokeWidth = 80;
};
closed = 0;
nodes = (
(120,660,l),
(120,380,ls),
(120,310,o),
(183,240,o),
(280,240,cs),
(350,240,o),
(440,277,o),
(440,380,c)
);
},
{
attr = {
strokeWidth = 76;
};
closed = 0;
nodes = (
(-20,660,l),
(622,660,l)
);
}
);
width = 580;
}
);
unicode = 2346;
},
{
color = 7;
glyphname = "pha-deva";
layers = (
{
layerId = "F57DB3D0-3720-4424-A829-EC3295753544";
associatedMasterId = "2ACD8D93-9596-4DD4-A1F7-681CA80B893F";
name = 1;
shapes = (
{
attr = {
};
closed = 1;
nodes = (
(100,660,l),
(180,660,l),
(180,360,ls),
(180,300,o),
(194,270,o),
(260,270,cs),
(344,270,o),
(393,315,o),
(403,394,c),
(479,394,l),
(479,259,o),
(411,220,o),
(300,220,cs),
(157,220,o),
(100,309,o),
(100,420,cs)
);
},
{
attr = {
};
closed = 1;
nodes = (
(-142,700,l),
(812,700,l),
(882,620,l),
(-72,620,l)
);
},
{
attr = {
};
closed = 1;
nodes = (
(550,158,l),
(550,160,l),
(557,160,o),
(551,160,o),
(551,160,cs),
(658,160,o),
(710,202,o),
(710,300,cs),
(710,392,o),
(675,410,o),
(600,410,cs),
(515,410,o),
(475,362,o),
(474,324,c),
(395,326,l),
(397,430,o),
(477,480,o),
(580,480,cs),
(685,480,o),
(770,379,o),
(770,270,cs),
(770,163,o),
(707,99,o),
(610,80,c)
);
},
{
closed = 1;
nodes = (
(400,63,l),
(404,378,l),
(394,660,l),
(486,660,l),
(478,349,l),
(480,63,l)
);
},
{
closed = 1;
nodes = (
(425,163,l),
(478,123,l),
(488,-23,l),
(484,-23,l),
(360,37,l),
(360,41,l)
);
}
);
width = 820;
},
{
layerId = "2ACD8D93-9596-4DD4-A1F7-681CA80B893F";
shapes = (
{
attr = {
strokeWidth = 80;
};
closed = 0;
nodes = (
(440,660,l),
(440,0,l)
);
},
{
attr = {
strokeWidth = 80;
};
closed = 0;
nodes = (
(120,660,l),
(120,380,ls),
(120,303,o),
(192,240,o),
(280,240,cs),
(370,240,o),
(440,292,o),
(440,360,c)
);
},
{
attr = {
strokeWidth = 80;
};
closed = 0;
nodes = (
(440,380,l),
(440,439,o),
(498,480,o),
(582,480,cs),
(683,480,o),
(740,418,o),
(740,310,cs),
(740,196,o),
(676,120,o),
(580,120,c)
);
},
{
attr = {
strokeWidth = 76;
};
closed = 0;
nodes = (
(-20,660,l),
(826,660,l)
);
}
);
width = 820;
}
);
unicode = 2347;
},
{
color = 7;
glyphname = "ba-deva";
layers = (
{
layerId = "F57DB3D0-3720-4424-A829-EC3295753544";
associatedMasterId = "2ACD8D93-9596-4DD4-A1F7-681CA80B893F";
name = 1;
shapes = (
{
closed = 1;
nodes = (
(359,63,l),
(363,378,l),
(353,660,l),
(445,660,l),
(437,349,l),
(439,63,l)
);
},
{
closed = 1;
nodes = (
(384,163,l),
(437,123,l),
(447,-23,l),
(443,-23,l),
(319,37,l),
(319,41,l)
);
},
{
attr = {
};
closed = 1;
nodes = (
(-162,700,l),
(-92,620,l),
(682,620,l),
(612,700,l)
);
},
{
attr = {
};
closed = 1;
nodes = (
(96,447,l),
(96,439,o),
(93,438,o),
(359,173,c),
(393,210,l),
(392,211,o),
(152,451,o),
(138,468,c),
(142,456,l)
);
},
{
attr = {
};
closed = 1;
nodes = (
(371,442,l),
(332,487,o),
(261,520,o),
(200,520,cs),
(124,520,o),
(40,463,o),
(40,350,cs),
(40,241,o),
(154,130,o),
(260,130,cs),
(377,130,o),
(436,235,o),
(436,308,c),
(366,308,l),
(366,254,o),
(311,200,o),
(220,200,cs),
(139,200,o),
(120,252,o),
(120,320,cs),
(120,413,o),
(154,455,o),
(260,455,cs),
(318,455,o),
(368,439,o),
(368,439,c)
);
}
);
width = 540;
},
{
layerId = "2ACD8D93-9596-4DD4-A1F7-681CA80B893F";
shapes = (
{
attr = {
strokeWidth = 76;
};
closed = 0;
nodes = (
(-20,660,l),
(580,660,l)
);
},
{
attr = {
strokeWidth = 76;
};
closed = 0;
nodes = (
(137,438,l),
(137,435,o),
(394,178,o),
(394,178,c)
);
},
{
attr = {
strokeWidth = 80;
};
closed = 0;
nodes = (
(420,659,l),
(420,0,l)
);
},
{
attr = {
strokeWidth = 80;
};
closed = 0;
nodes = (
(423,236,l),
(402,174,o),
(336,140,o),
(266,140,cs),
(175,140,o),
(80,197,o),
(80,310,cs),
(80,412,o),
(156,480,o),
(261,480,cs),
(335,480,o),
(402,446,o),
(423,384,c)
);
}
);
width = 560;
}
);
unicode = 2348;
},
{
color = 7;
glyphname = "bha-deva";
layers = (
{
layerId = "6030268D-84C6-4BCD-A1C3-AD90F9179EB7";
associatedMasterId = "2ACD8D93-9596-4DD4-A1F7-681CA80B893F";
name = 2;
shapes = (
{
closed = 1;
nodes = (
(499,63,l),
(503,378,l),
(493,660,l),
(585,660,l),
(577,349,l),
(579,63,l)
);
},
{
closed = 1;
nodes = (
(524,163,l),
(577,123,l),
(587,-23,l),
(583,-23,l),
(459,37,l),
(459,41,l)
);
},
{
closed = 1;
nodes = (
(260,252,l),
(180,252,l),
(180,373,o),
(180,456,o),
(180,580,cs),
(180,631,o),
(172,620,o),
(120,620,c),
(120,528,l),
(20,590,l),
(20,660,o),
(71,700,o),
(137,700,cs),
(200,700,o),
(260,595,o),
(260,580,cs)
);
},
{
closed = 1;
nodes = (
(553,320,l),
(553,240,l),
(260,240,l),
(260,120,l),
(255,120,l),
(79,316,l),
(79,320,l)
);
},
{
closed = 1;
nodes = (
(307,700,l),
(592,700,l),
(662,620,l),
(377,620,l)
);
}
);
width = 680;
},
{
layerId = "F57DB3D0-3720-4424-A829-EC3295753544";
associatedMasterId = "2ACD8D93-9596-4DD4-A1F7-681CA80B893F";
name = 1;
shapes = (
{
closed = 1;
nodes = (
(499,63,l),
(503,378,l),
(493,660,l),
(585,660,l),
(577,349,l),
(579,63,l)
);
},
{
closed = 1;
nodes = (
(524,163,l),
(577,123,l),
(587,-23,l),
(583,-23,l),
(459,37,l),
(459,41,l)
);
},
{
closed = 1;
nodes = (
(260,252,l),
(180,252,l),
(180,620,l),
(162,618,o),
(140,584,o),
(140,584,c),
(140,584,o),
(140,518,o),
(140,518,c),
(140,518,o),
(20,600,o),
(20,600,c),
(20,600,o),
(90,692,o),
(139,700,c),
(166,700,o),
(260,617,o),
(260,580,c)
);
},
{
closed = 1;
nodes = (
(553,320,l),
(553,240,l),
(260,240,l),
(260,120,l),
(255,120,l),
(79,316,l),
(79,320,l)
);
},
{
closed = 1;
nodes = (
(307,700,l),
(592,700,l),
(662,620,l),
(377,620,l)
);
}
);
width = 680;
},
{
layerId = "2ACD8D93-9596-4DD4-A1F7-681CA80B893F";
shapes = (
{
attr = {
strokeWidth = 80;
};
closed = 0;
nodes = (
(500,659,l),
(500,0,l)
);
},
{
attr = {
strokeWidth = 80;
};
closed = 0;
nodes = (
(499,280,l),
(150,280,ls),
(41,280,o),
(180,121,o),
(180,210,cs),
(180,538,l),
(180,600,o),
(184,660,o),
(120,660,c),
(95,660,o),
(54,660,o),
(30,660,cs)
);
},
{
attr = {
strokeWidth = 76;
};
closed = 0;
nodes = (
(299,660,l),
(688,660,l)
);
}
);
width = 640;
}
);
unicode = 2349;
},
{
color = 7;
glyphname = "ma-deva";
layers = (
{
layerId = "F57DB3D0-3720-4424-A829-EC3295753544";
associatedMasterId = "2ACD8D93-9596-4DD4-A1F7-681CA80B893F";
name = 1;
shapes = (
{
closed = 1;
nodes = (
(440,63,l),
(444,378,l),
(434,660,l),
(526,660,l),
(518,349,l),
(520,63,l)
);
},
{
closed = 1;
nodes = (
(465,163,l),
(518,123,l),
(528,-23,l),
(524,-23,l),
(400,37,l),
(400,41,l)
);
},
{
attr = {
};
closed = 1;
nodes = (
(612,700,l),
(702,620,l),
(-72,620,l),
(-142,700,l)
);
},
{
attr = {
};
closed = 1;
nodes = (
(120,252,l),
(120,640,l),
(200,640,l),
(200,252,l)
);
},
{
attr = {
};
closed = 1;
nodes = (
(494,240,l),
(200,240,l),
(200,120,l),
(196,120,l),
(20,316,l),
(20,320,l),
(494,320,l)
);
}
);
width = 620;
},
{
layerId = "2ACD8D93-9596-4DD4-A1F7-681CA80B893F";
shapes = (
{
attr = {
strokeWidth = 76;
};
closed = 0;
nodes = (
(-60,660,l),
(651,660,l)
);
},
{
attr = {
strokeWidth = 80;
};
closed = 0;
nodes = (
(480,659,l),
(480,0,l)
);
},
{
attr = {
strokeWidth = 80;
};
closed = 0;
nodes = (
(160,656,l),
(160,210,ls),
(160,121,o),
(21,280,o),
(130,280,cs),
(479,280,l)
);
}
);
width = 620;
}
);
unicode = 2350;
},
{
color = 7;
glyphname = "ya-deva";
layers = (
{
layerId = "F57DB3D0-3720-4424-A829-EC3295753544";
associatedMasterId = "2ACD8D93-9596-4DD4-A1F7-681CA80B893F";
name = 1;
shapes = (
{
closed = 1;
nodes = (
(100,404,l),
(100,346,o),
(138,200,o),
(271,200,cs),
(393,200,o),
(447,269,o),
(447,340,c),
(517,340,l),
(517,259,o),
(466,120,o),
(301,120,cs),
(173,120,o),
(50,246,o),
(50,429,c)
);
},
{
closed = 1;
nodes = (
(-161,700,l),
(633,700,l),
(703,620,l),
(-91,620,l)
);
},
{
closed = 1;
nodes = (
(251,573,o),
(270,539,o),
(270,478,cs),
(270,397,o),
(221,340,o),
(152,340,cs),
(120,340,o),
(74,357,o),
(55,376,c),
(50,430,l),
(75,420,o),
(85,415,o),
(119,415,cs),
(173,415,o),
(200,436,o),
(200,503,cs),
(200,561,o),
(185,614,o),
(158,650,c),
(177,650,o),
(155,650,o),
(174,650,c)
);
},
{
closed = 1;
nodes = (
(440,64,l),
(444,379,l),
(434,661,l),
(526,661,l),
(518,350,l),
(520,64,l)
);
},
{
closed = 1;
nodes = (
(465,164,l),
(518,124,l),
(528,-22,l),
(524,-22,l),
(400,38,l),
(400,42,l)
);
}
);
width = 620;
},
{
layerId = "2ACD8D93-9596-4DD4-A1F7-681CA80B893F";
shapes = (
{
attr = {
strokeWidth = 80;
};
closed = 0;
nodes = (
(80,660,l),
(189,660,o),
(260,600,o),
(260,510,cs),
(260,422,o),
(190,380,o),
(80,380,c)
);
},
{
attr = {
strokeWidth = 80;
};
closed = 0;
nodes = (
(480,660,l),
(480,0,l)
);
},
{
attr = {
strokeWidth = 80;
};
closed = 0;
nodes = (
(80,420,l),
(80,272,o),
(139,160,o),
(290,160,cs),
(429,160,o),
(480,254,o),
(480,320,c)
);
},
{
attr = {
strokeWidth = 76;
};
closed = 0;
nodes = (
(-20,660,l),
(643,660,l)
);
}
);
width = 620;
}
);
unicode = 2351;
},
{
color = 7;
glyphname = "ra-deva";
layers = (
{
anchors = (
{
name = top;
position = "{166, 660}";
},
{
name = bottom;
position = "{420, 440}";
},
{
name = anutop;
position = "{160, 982}";
}
);
layerId = "F57DB3D0-3720-4424-A829-EC3295753544";
associatedMasterId = "2ACD8D93-9596-4DD4-A1F7-681CA80B893F";
name = 1;
shapes = (
{
closed = 1;
nodes = (
(145,660,o),
(169,660,o),
(150,660,c),
(176,625,o),
(200,553,o),
(200,500,cs),
(200,413,o),
(165,380,o),
(110,385,cs),
(75,388,o),
(79,390,o),
(40,400,c),
(45,346,l),
(57,334,o),
(98,310,o),
(138,310,cs),
(211,310,o),
(280,372,o),
(280,462,cs),
(280,524,o),
(229,595,o),
(164,660,c)
);
},
{
closed = 1;
nodes = (
(40,400,l),
(40,226,o),
(185,0,o),
(320,0,c),
(320,120,l),
(190,120,l),
(119,216,o),
(129,315,o),
(129,375,c)
);
},
{
closed = 1;
nodes = (
(-52,620,l),
(552,620,l),
(482,700,l),
(-122,700,l)
);
}
);
width = 360;
},
{
layerId = "2ACD8D93-9596-4DD4-A1F7-681CA80B893F";
shapes = (
{
attr = {
strokeWidth = 80;
lineCapStart = 4;
};
closed = 0;
nodes = (
(300,0,l),
(272,42,o),
(92,360,o),
(75,393,c)
);
},
{
attr = {
strokeWidth = 80;
lineCapStart = 4;
};
closed = 0;
nodes = (
(140,660,l),
(272,660,o),
(320,593,o),
(320,499,cs),
(320,407,o),
(274,340,o),
(119,340,c)
);
},
{
attr = {
strokeWidth = 76;
};
closed = 0;
nodes = (
(-20,660,l),
(443,660,l)
);
}
);
width = 400;
}
);
unicode = 2352;
},
{
color = 7;
glyphname = "la-deva";
layers = (
{
layerId = "F57DB3D0-3720-4424-A829-EC3295753544";
associatedMasterId = "2ACD8D93-9596-4DD4-A1F7-681CA80B893F";
name = 1;
shapes = (
{
closed = 1;
nodes = (
(280,270,l),
(280,387,o),
(326,460,o),
(410,460,cs),
(501,460,o),
(528,379,o),
(531,379,c),
(531,372,l),
(437,409,o),
(381,391,o),
(381,325,cs),
(381,316,o),
(380,293,o),
(380,233,c)
);
},
{
closed = 1;
nodes = (
(300,-20,l),
(203,-20,o),
(40,148,o),
(40,300,cs),
(40,396,o),
(89,460,o),
(180,460,cs),
(258,460,o),
(298,413,o),
(298,352,c),
(296,352,l),
(296,365,o),
(263,380,o),
(220,380,cs),
(151,380,o),
(120,344,o),
(120,260,cs),
(120,114,o),
(185,20,o),
(300,20,c)
);
},
{
closed = 1;
nodes = (
(300,-19,l),
(125,99,l),
(300,100,l)
);
},
{
closed = 1;
nodes = (
(128,104,o),
(134,110,o),
(143,110,cs),
(151,110,o),
(157,104,o),
(157,96,cs),
(157,87,o),
(151,81,o),
(143,81,cs),
(134,81,o),
(128,87,o),
(128,96,cs)
);
},
{
attr = {
};
closed = 1;
nodes = (
(720,700,l),
(790,620,l),
(-20,620,l),
(-90,700,l)
);
},
{
closed = 1;
nodes = (
(520,63,l),
(524,378,l),
(514,660,l),
(606,660,l),
(598,349,l),
(600,63,l)
);
},
{
closed = 1;
nodes = (
(545,163,l),
(598,123,l),
(608,-23,l),
(604,-23,l),
(480,37,l),
(480,41,l)
);
}
);
width = 700;
},
{
layerId = "2ACD8D93-9596-4DD4-A1F7-681CA80B893F";
shapes = (
{
attr = {
strokeWidth = 80;
lineCapEnd = 4;
lineCapStart = 4;
};
closed = 0;
nodes = (
(560,661,l),
(560,0,l)
);
},
{
attr = {
strokeWidth = 80;
lineCapEnd = 4;
lineCapStart = 4;
};
closed = 0;
nodes = (
(560,420,l),
(550,420,o),
(535,420,o),
(535,420,cs),
(442,420,o),
(338,403,o),
(338,255,cs),
(338,239,o),
(338,218,o),
(340,200,c)
);
},
{
attr = {
strokeWidth = 80;
lineCapEnd = 4;
lineCapStart = 4;
};
closed = 0;
nodes = (
(210,0,l),
(130,96,o),
(80,175,o),
(80,280,cs),
(80,371,o),
(142,420,o),
(220,420,cs),
(272,420,o),
(344,397,o),
(354,328,c)
);
},
{
attr = {
strokeWidth = 76;
};
closed = 0;
nodes = (
(-20,660,l),
(717,660,l)
);
}
);
width = 700;
}
);
unicode = 2354;
},
{
color = 7;
glyphname = "va-deva";
layers = (
{
layerId = "F57DB3D0-3720-4424-A829-EC3295753544";
associatedMasterId = "2ACD8D93-9596-4DD4-A1F7-681CA80B893F";
name = 1;
shapes = (
{
closed = 1;
nodes = (
(359,63,l),
(363,378,l),
(353,660,l),
(445,660,l),
(437,349,l),
(439,63,l)
);
},
{
closed = 1;
nodes = (
(384,163,l),
(437,123,l),
(447,-23,l),
(443,-23,l),
(319,37,l),
(319,41,l)
);
},
{
closed = 1;
nodes = (
(-162,700,l),
(-92,620,l),
(682,620,l),
(622,700,l)
);
},
{
closed = 1;
nodes = (
(371,442,l),
(332,487,o),
(261,520,o),
(200,520,cs),
(124,520,o),
(40,463,o),
(40,350,cs),
(40,241,o),
(154,130,o),
(260,130,cs),
(377,130,o),
(436,235,o),
(436,308,c),
(366,308,l),
(366,254,o),
(311,200,o),
(220,200,cs),
(139,200,o),
(120,252,o),
(120,320,cs),
(120,413,o),
(154,455,o),
(260,455,cs),
(318,455,o),
(368,439,o),
(368,439,c)
);
},
{
closed = 1;
nodes = (
(345,447,o),
(348,444,o),
(352,444,cs),
(356,444,o),
(360,447,o),
(360,451,cs),
(360,455,o),
(356,459,o),
(352,459,cs),
(348,459,o),
(345,455,o),
(345,451,cs)
);
}
);
width = 540;
},
{
layerId = "2ACD8D93-9596-4DD4-A1F7-681CA80B893F";
shapes = (
{
attr = {
strokeWidth = 76;
};
closed = 0;
nodes = (
(-21,660,l),
(579,660,l)
);
},
{
attr = {
strokeWidth = 80;
};
closed = 0;
nodes = (
(420,659,l),
(420,0,l)
);
},
{
attr = {
strokeWidth = 80;
};
closed = 0;
nodes = (
(423,236,l),
(402,174,o),
(336,140,o),
(266,140,cs),
(175,140,o),
(80,197,o),
(80,310,cs),
(80,412,o),
(156,480,o),
(261,480,cs),
(335,480,o),
(402,446,o),
(423,384,c)
);
}
);
width = 560;
}
);
unicode = 2357;
},
{
color = 7;
glyphname = "sha-deva";
layers = (
{
layerId = "F57DB3D0-3720-4424-A829-EC3295753544";
associatedMasterId = "2ACD8D93-9596-4DD4-A1F7-681CA80B893F";
name = 1;
shapes = (
{
attr = {
};
closed = 1;
nodes = (
(418,700,l),
(702,700,l),
(772,620,l),
(480,620,l)
);
},
{
closed = 1;
nodes = (
(558,63,l),
(562,378,l),
(552,660,l),
(644,660,l),
(636,349,l),
(638,63,l)
);
},
{
closed = 1;
nodes = (
(583,163,l),
(636,123,l),
(646,-23,l),
(642,-23,l),
(518,37,l),
(518,41,l)
);
},
{
closed = 1;
nodes = (
(80,400,l),
(80,226,o),
(245,0,o),
(380,0,c),
(380,120,l),
(250,120,l),
(179,216,o),
(169,313,o),
(169,373,c)
);
},
{
closed = 1;
nodes = (
(330,418,o),
(289,371,o),
(198,371,cs),
(165,371,o),
(131,380,o),
(92,396,c),
(98,316,l),
(121,292,o),
(178,290,o),
(226,290,cs),
(328,290,o),
(410,376,o),
(410,472,cs),
(410,590,o),
(313,700,o),
(212,700,cs),
(114,700,o),
(80,606,o),
(80,558,c),
(80,558,o),
(200,487,o),
(200,487,c),
(200,486,o),
(200,620,o),
(200,620,c),
(289,620,o),
(330,633,o),
(330,550,cs)
);
}
);
width = 740;
},
{
layerId = "2ACD8D93-9596-4DD4-A1F7-681CA80B893F";
shapes = (
{
attr = {
strokeWidth = 80;
};
closed = 0;
nodes = (
(600,627,l),
(600,0,l)
);
},
{
attr = {
strokeWidth = 80;
};
closed = 0;
nodes = (
(295,3,l),
(267,45,o),
(97,338,o),
(80,371,c)
);
},
{
attr = {
strokeWidth = 80;
};
closed = 0;
nodes = (
(220,472,l),
(169,472,o),
(140,510,o),
(140,558,cs),
(140,623,o),
(193,664,o),
(264,664,cs),
(412,664,o),
(410,508,o),
(410,483,cs),
(410,259,o),
(169,301,o),
(104,301,c)
);
},
{
attr = {
strokeWidth = 76;
};
closed = 0;
nodes = (
(478,660,l),
(761,660,l)
);
}
);
width = 740;
}
);
unicode = 2358;
},
{
color = 7;
glyphname = "ssa-deva";
layers = (
{
layerId = "F57DB3D0-3720-4424-A829-EC3295753544";
associatedMasterId = "2ACD8D93-9596-4DD4-A1F7-681CA80B893F";
name = 1;
shapes = (
{
attr = {
};
closed = 1;
nodes = (
(116,586,l),
(116,578,o),
(113,577,o),
(379,312,c),
(413,349,l),
(412,350,o),
(172,590,o),
(158,607,c)
);
},
{
closed = 1;
nodes = (
(-142,700,l),
(632,700,l),
(702,620,l),
(-72,620,l)
);
},
{
closed = 1;
nodes = (
(400,63,l),
(404,378,l),
(394,660,l),
(486,660,l),
(478,349,l),
(480,63,l)
);
},
{
closed = 1;
nodes = (
(425,163,l),
(478,123,l),
(488,-23,l),
(484,-23,l),
(360,37,l),
(360,41,l)
);
},
{
closed = 1;
nodes = (
(80,660,l),
(160,660,l),
(160,380,ls),
(160,320,o),
(174,270,o),
(240,270,cs),
(324,270,o),
(393,325,o),
(403,404,c),
(479,404,l),
(479,269,o),
(391,220,o),
(280,220,cs),
(137,220,o),
(80,329,o),
(80,440,cs)
);
}
);
width = 580;
},
{
layerId = "2ACD8D93-9596-4DD4-A1F7-681CA80B893F";
shapes = (
{
attr = {
strokeWidth = 80;
};
closed = 0;
nodes = (
(440,306,l),
(440,306,o),
(120,626,o),
(120,629,c)
);
},
{
attr = {
strokeWidth = 80;
};
closed = 0;
nodes = (
(440,660,l),
(440,0,l)
);
},
{
attr = {
strokeWidth = 80;
};
closed = 0;
nodes = (
(120,660,l),
(120,380,ls),
(120,310,o),
(183,240,o),
(280,240,cs),
(350,240,o),
(440,277,o),
(440,380,c)
);
},
{
attr = {
strokeWidth = 76;
};
closed = 0;
nodes = (
(-21,660,l),
(633,660,l)
);
}
);
width = 580;
}
);
unicode = 2359;
},
{
color = 7;
glyphname = "sa-deva";
layers = (
{
layerId = "F57DB3D0-3720-4424-A829-EC3295753544";
associatedMasterId = "2ACD8D93-9596-4DD4-A1F7-681CA80B893F";
name = 1;
shapes = (
{
closed = 1;
nodes = (
(480,64,l),
(484,379,l),
(474,661,l),
(566,661,l),
(558,350,l),
(560,64,l)
);
},
{
closed = 1;
nodes = (
(505,164,l),
(558,124,l),
(568,-22,l),
(564,-22,l),
(440,38,l),
(440,42,l)
);
},
{
attr = {
};
closed = 1;
nodes = (
(519,301,l),
(88,300,l),
(95,352,l),
(519,382,l)
);
},
{
attr = {
};
closed = 1;
nodes = (
(-122,700,l),
(712,700,l),
(782,620,l),
(-52,620,l)
);
},
{
attr = {
};
closed = 1;
nodes = (
(239,575,o),
(280,524,o),
(280,462,cs),
(280,372,o),
(211,310,o),
(138,310,cs),
(98,310,o),
(57,334,o),
(45,346,c),
(40,400,l),
(79,390,o),
(75,388,o),
(110,385,cs),
(165,380,o),
(200,413,o),
(200,500,cs),
(200,563,o),
(179,612,o),
(158,640,c),
(177,640,o),
(155,640,o),
(174,640,c)
);
},
{
attr = {
};
closed = 1;
nodes = (
(129,375,l),
(129,315,o),
(119,216,o),
(190,120,c),
(320,120,l),
(320,0,l),
(185,0,o),
(40,226,o),
(40,400,c)
);
}
);
width = 660;
},
{
layerId = "2ACD8D93-9596-4DD4-A1F7-681CA80B893F";
shapes = (
{
attr = {
strokeWidth = 80;
lineCapStart = 4;
};
closed = 0;
nodes = (
(560,676,l),
(560,0,l)
);
},
{
attr = {
strokeWidth = 80;
lineCapStart = 4;
};
closed = 0;
nodes = (
(549,320,l),
(116,320,l)
);
},
{
attr = {
strokeWidth = 80;
lineCapStart = 4;
};
closed = 0;
nodes = (
(301,3,l),
(273,45,o),
(92,360,o),
(75,393,c)
);
},
{
attr = {
strokeWidth = 80;
lineCapStart = 4;
};
closed = 0;
nodes = (
(120,660,l),
(252,660,o),
(300,593,o),
(300,499,cs),
(300,407,o),
(254,340,o),
(99,340,c)
);
},
{
attr = {
strokeWidth = 76;
};
closed = 0;
nodes = (
(-21,660,l),
(749,660,l)
);
}
);
width = 700;
}
);
unicode = 2360;
},
{
color = 7;
glyphname = "ha-deva";
layers = (
{
anchors = (
{
name = top;
position = "{360, 660}";
},
{
name = bottom;
position = "{291, -19}";
}
);
layerId = "F57DB3D0-3720-4424-A829-EC3295753544";
associatedMasterId = "2ACD8D93-9596-4DD4-A1F7-681CA80B893F";
name = 1;
shapes = (
{
closed = 1;
nodes = (
(320,660,l),
(400,660,l),
(400,440,l),
(180,440,ls),
(136,440,o),
(110,413,o),
(110,370,cs),
(110,326,o),
(124,282,o),
(156,267,c),
(154,261,l),
(82,278,o),
(40,334,o),
(40,400,cs),
(40,480,o),
(100,520,o),
(180,520,cs),
(320,520,l)
);
},
{
closed = 1;
nodes = (
(320,140,l),
(348,172,o),
(398,229,o),
(401,238,cs),
(401,238,o),
(369,260,o),
(300,260,cs),
(166,260,o),
(140,231,o),
(140,150,cs),
(140,93,o),
(178,40,o),
(190,40,cs),
(210,40,o),
(240,40,o),
(360,40,c),
(361,-60,l),
(274,-60,o),
(60,42,o),
(60,180,cs),
(60,274,o),
(133,340,o),
(270,340,cs),
(423,340,o),
(477,213,o),
(420,100,c)
);
},
{
closed = 1;
nodes = (
(-132,700,l),
(612,700,l),
(682,620,l),
(-62,620,l)
);
},
{
closed = 1;
nodes = (
(400,252,o),
(406,258,o),
(415,258,cs),
(423,258,o),
(429,252,o),
(429,244,cs),
(429,235,o),
(423,229,o),
(415,229,cs),
(406,229,o),
(400,235,o),
(400,244,cs)
);
},
{
closed = 1;
nodes = (
(164,37,o),
(170,43,o),
(179,43,cs),
(187,43,o),
(193,37,o),
(193,29,cs),
(193,20,o),
(187,14,o),
(179,14,cs),
(170,14,o),
(164,20,o),
(164,29,cs)
);
}
);
width = 480;
},
{
layerId = "2ACD8D93-9596-4DD4-A1F7-681CA80B893F";
shapes = (
{
attr = {
strokeWidth = 80;
};
closed = 0;
nodes = (
(359,643,l),
(359,480,l),
(180,480,ls),
(112,480,o),
(80,434,o),
(80,380,cs),
(80,337,o),
(100,289,o),
(164,254,c)
);
},
{
attr = {
strokeWidth = 80;
};
closed = 0;
nodes = (
(430,130,l),
(437,232,o),
(373,300,o),
(270,300,cs),
(160,300,o),
(100,221,o),
(100,134,cs),
(100,57,o),
(148,-42,o),
(293,-42,cs),
(390,-42,o),
(427,4,o),
(431,6,c)
);
},
{
attr = {
strokeWidth = 76;
};
closed = 0;
nodes = (
(-21,660,l),
(519,660,l)
);
}
);
width = 500;
}
);
unicode = 2361;
},
{
color = 7;
glyphname = "aasign-deva";
layers = (
{
layerId = "F57DB3D0-3720-4424-A829-EC3295753544";
associatedMasterId = "2ACD8D93-9596-4DD4-A1F7-681CA80B893F";
name = 1;
shapes = (
{
closed = 1;
nodes = (
(100,64,l),
(104,379,l),
(94,661,l),
(186,661,l),
(178,350,l),
(180,64,l)
);
},
{
closed = 1;
nodes = (
(125,164,l),
(178,124,l),
(188,-22,l),
(184,-22,l),
(60,38,l),
(60,42,l)
);
},
{
closed = 1;
nodes = (
(-142,700,l),
(322,700,l),
(392,620,l),
(-80,620,l)
);
}
);
width = 280;
},
{
layerId = "2ACD8D93-9596-4DD4-A1F7-681CA80B893F";
shapes = (
{
attr = {
strokeWidth = 80;
};
closed = 0;
nodes = (
(140,660,l),
(140,660,o),
(140,0,o),
(140,0,c)
);
},
{
attr = {
strokeWidth = 80;
strokeHeight = 76;
};
closed = 0;
nodes = (
(-20,660,l),
(300,660,l)
);
}
);
width = 280;
}
);
unicode = 2366;
},
{
color = 7;
glyphname = "isign-deva";
layers = (
{
layerId = "F57DB3D0-3720-4424-A829-EC3295753544";
associatedMasterId = "2ACD8D93-9596-4DD4-A1F7-681CA80B893F";
name = 1;
shapes = (
{
attr = {
strokeWidth = 80;
};
closed = 0;
nodes = (
(160,680,l),
(112,738,o),
(70,829,o),
(130,889,cs),
(197,956,o),
(302,922,o),
(352,879,cs),
(471,776,o),
(501,660,o),
(625,660,c)
);
},
{
closed = 1;
nodes = (
(119,63,l),
(123,378,l),
(113,660,l),
(205,660,l),
(197,349,l),
(199,63,l)
);
},
{
closed = 1;
nodes = (
(144,163,l),
(197,123,l),
(207,-23,l),
(203,-23,l),
(79,37,l),
(79,41,l)
);
},
{
closed = 1;
nodes = (
(-106,700,l),
(650,700,l),
(720,620,l),
(-36,620,l)
);
}
);
width = 359;
},
{
layerId = "2ACD8D93-9596-4DD4-A1F7-681CA80B893F";
shapes = (
{
attr = {
strokeWidth = 80;
};
closed = 0;
nodes = (
(160,0,l),
(160,231,o),
(160,-20,o),
(160,680,c),
(112,738,o),
(70,829,o),
(130,889,cs),
(197,956,o),
(302,922,o),
(352,879,cs),
(471,776,o),
(501,660,o),
(625,660,c)
);
},
{
attr = {
strokeWidth = 80;
};
closed = 0;
nodes = (
(-20,660,l),
(655,660,l)
);
}
);
width = 359;
}
);
unicode = 2367;
},
{
color = 7;
glyphname = "iisign-deva";
layers = (
{
layerId = "F57DB3D0-3720-4424-A829-EC3295753544";
associatedMasterId = "2ACD8D93-9596-4DD4-A1F7-681CA80B893F";
name = 1;
shapes = (
{
attr = {
strokeWidth = 80;
};
closed = 0;
nodes = (
(-144,652,l),
(-248,717,o),
(-278,819,o),
(-223,889,cs),
(-174,953,o),
(-59,936,o),
(-6,885,cs),
(45,836,o),
(123,686,o),
(255,658,c)
);
},
{
attr = {
strokeWidth = 80;
};
closed = 0;
nodes = (
(-357,660,l),
(409,660,l)
);
},
{
attr = {
strokeWidth = 80;
};
closed = 0;
nodes = (
(200,680,l),
(200,-20,o),
(200,231,o),
(200,0,c)
);
}
);
width = 380;
},
{
layerId = "2ACD8D93-9596-4DD4-A1F7-681CA80B893F";
shapes = (
{
attr = {
strokeWidth = 80;
};
closed = 0;
nodes = (
(-144,652,l),
(-248,717,o),
(-278,819,o),
(-223,889,cs),
(-174,953,o),
(-59,936,o),
(-6,885,cs),
(45,836,o),
(123,686,o),
(255,658,c)
);
},
{
attr = {
strokeWidth = 80;
};
closed = 0;
nodes = (
(-357,660,l),
(409,660,l)
);
},
{
attr = {
strokeWidth = 80;
};
closed = 0;
nodes = (
(200,680,l),
(200,-20,o),
(200,231,o),
(200,0,c)
);
}
);
width = 380;
}
);
unicode = 2368;
},
{
color = 7;
glyphname = "usign-deva";
layers = (
{
layerId = "6030268D-84C6-4BCD-A1C3-AD90F9179EB7";
associatedMasterId = "2ACD8D93-9596-4DD4-A1F7-681CA80B893F";
name = 2;
shapes = (
{
closed = 1;
nodes = (
(460,-93,o),
(430,0,o),
(309,0,cs),
(289,0,o),
(250,-4,o),
(240,-7,c),
(240,-7,o),
(240,-137,o),
(240,-137,c),
(240,-138,o),
(321,-60,o),
(342,-60,c),
(392,-60,o),
(400,-66,o),
(400,-94,cs),
(400,-148,o),
(350,-190,o),
(286,-190,cs),
(191,-190,o),
(151,-170,o),
(140,-159,c),
(140,-159,o),
(140,-86,o),
(140,-40,c),
(40,-40,l),
(40,-141,o),
(182,-260,o),
(303,-260,cs),
(390,-260,o),
(460,-198,o),
(460,-121,cs)
);
}
);
width = 521;
},
{
anchors = (
{
name = _bottom;
position = "{388, -13}";
}
);
layerId = "F57DB3D0-3720-4424-A829-EC3295753544";
associatedMasterId = "2ACD8D93-9596-4DD4-A1F7-681CA80B893F";
name = 1;
shapes = (
{
closed = 1;
nodes = (
(520,-55,o),
(450,10,o),
(353,10,cs),
(307,10,o),
(277,-3,o),
(240,-40,c),
(240,-40,o),
(320,-130,o),
(320,-130,c),
(320,-131,o),
(320,-50,o),
(400,-50,cs),
(447,-50,o),
(450,-76,o),
(450,-87,cs),
(450,-157,o),
(415,-190,o),
(317,-190,cs),
(257,-190,o),
(218,-177,o),
(200,-159,c),
(200,-159,o),
(200,-86,o),
(200,-40,c),
(110,-40,l),
(110,-137,o),
(198,-260,o),
(367,-260,cs),
(456,-260,o),
(520,-203,o),
(520,-134,cs)
);
}
);
width = 521;
},
{
layerId = "2ACD8D93-9596-4DD4-A1F7-681CA80B893F";
shapes = (
{
attr = {
strokeWidth = 80;
};
closed = 0;
nodes = (
(310,-73,l),
(353,7,o),
(465,-49,o),
(447,-130,cs),
(421,-249,o),
(108,-265,o),
(85,-39,c)
);
}
);
width = 521;
}
);
unicode = 2369;
},
{
color = 7;
glyphname = "uusign-deva";
layers = (
{
anchors = (
{
name = _bottom;
position = "{220, -20}";
}
);
layerId = "F57DB3D0-3720-4424-A829-EC3295753544";
associatedMasterId = "2ACD8D93-9596-4DD4-A1F7-681CA80B893F";
name = 1;
shapes = (
{
attr = {
};
closed = 1;
nodes = (
(30,-197,o),
(95,-260,o),
(192,-260,cs),
(228,-260,o),
(261,-249,o),
(271,-239,c),
(271,-239,o),
(220,-140,o),
(220,-140,c),
(220,-139,o),
(195,-199,o),
(131,-200,c),
(98,-200,o),
(100,-152,o),
(100,-141,cs),
(100,-92,o),
(136,-66,o),
(201,-66,cs),
(289,-66,o),
(349,-114,o),
(387,-179,cs),
(387,-179,o),
(340,-226,o),
(309,-260,c),
(430,-259,l),
(430,-106,o),
(325,6,o),
(181,6,cs),
(90,6,o),
(30,-41,o),
(30,-104,cs)
);
}
);
width = 540;
},
{
layerId = "2ACD8D93-9596-4DD4-A1F7-681CA80B893F";
shapes = (
{
attr = {
strokeWidth = 80;
};
closed = 0;
nodes = (
(203,-183,l),
(137,-245,o),
(54,-158,o),
(91,-85,cs),
(153,37,o),
(463,-68,o),
(460,-250,c)
);
}
);
width = 540;
}
);
unicode = 2370;
},
{
color = 7;
glyphname = "esign-deva";
layers = (
{
anchors = (
{
name = _top;
position = "{342, 660}";
}
);
layerId = "F57DB3D0-3720-4424-A829-EC3295753544";
associatedMasterId = "2ACD8D93-9596-4DD4-A1F7-681CA80B893F";
name = 1;
shapes = (
{
attr = {
};
closed = 1;
nodes = (
(320,660,l),
(320,750,o),
(235,900,o),
(140,900,cs),
(115,900,o),
(72,874,o),
(60,850,c),
(0,960,l),
(28,975,o),
(56,980,o),
(92,980,cs),
(236,980,o),
(366,846,o),
(366,660,c)
);
}
);
width = 366;
},
{
layerId = "2ACD8D93-9596-4DD4-A1F7-681CA80B893F";
shapes = (
{
attr = {
strokeWidth = 80;
};
closed = 0;
nodes = (
(160,639,l),
(157,756,o),
(124,980,o),
(-51,920,c)
);
}
);
width = 260;
}
);
unicode = 2375;
},
{
color = 7;
glyphname = "aisign-deva";
layers = (
{
anchors = (
{
name = _top;
position = "{341, 660}";
}
);
layerId = "F57DB3D0-3720-4424-A829-EC3295753544";
associatedMasterId = "2ACD8D93-9596-4DD4-A1F7-681CA80B893F";
name = 1;
shapes = (
{
attr = {
};
closed = 1;
nodes = (
(319,660,l),
(319,751,o),
(256,940,o),
(161,940,cs),
(136,940,o),
(92,924,o),
(80,900,c),
(20,999,l),
(48,1014,o),
(76,1020,o),
(112,1020,cs),
(256,1020,o),
(366,826,o),
(366,660,c)
);
},
{
attr = {
};
closed = 1;
nodes = (
(319,660,l),
(319,752,o),
(233,793,o),
(140,793,cs),
(102,793,o),
(72,769,o),
(60,745,c),
(0,840,l),
(28,855,o),
(56,861,o),
(92,861,cs),
(239,861,o),
(365,752,o),
(365,660,c)
);
}
);
width = 366;
},
{
layerId = "2ACD8D93-9596-4DD4-A1F7-681CA80B893F";
shapes = (
{
attr = {
strokeWidth = 80;
};
closed = 0;
nodes = (
(125,638,l),
(102,707,o),
(37,824,o),
(-77,824,c)
);
},
{
attr = {
strokeWidth = 80;
};
closed = 0;
nodes = (
(160,645,l),
(157,762,o),
(156,938,o),
(11,955,c)
);
}
);
width = 260;
}
);
unicode = 2376;
},
{
color = 7;
glyphname = "osign-deva";
layers = (
{
layerId = "F57DB3D0-3720-4424-A829-EC3295753544";
associatedMasterId = "2ACD8D93-9596-4DD4-A1F7-681CA80B893F";
name = 1;
shapes = (
{
attr = {
};
closed = 1;
nodes = (
(-233,700,l),
(196,700,l),
(266,620,l),
(-163,620,l)
);
},
{
attr = {
};
closed = 1;
nodes = (
(81,647,l),
(81,737,o),
(-2,900,o),
(-97,900,cs),
(-122,900,o),
(-166,884,o),
(-178,860,c),
(-238,959,l),
(-210,974,o),
(-182,980,o),
(-146,980,cs),
(-2,980,o),
(128,833,o),
(128,647,c)
);
},
{
closed = 1;
nodes = (
(66,63,l),
(70,378,l),
(60,660,l),
(152,660,l),
(144,349,l),
(146,63,l)
);
},
{
closed = 1;
nodes = (
(91,163,l),
(144,123,l),
(154,-23,l),
(150,-23,l),
(26,37,l),
(26,41,l)
);
}
);
width = 162;
},
{
layerId = "2ACD8D93-9596-4DD4-A1F7-681CA80B893F";
shapes = (
{
attr = {
strokeWidth = 80;
};
closed = 0;
nodes = (
(160,700,l),
(160,0,o),
(160,231,o),
(160,0,c)
);
},
{
attr = {
strokeWidth = 80;
};
closed = 0;
nodes = (
(-41,660,l),
(360,660,l)
);
},
{
attr = {
strokeWidth = 80;
};
closed = 0;
nodes = (
(160,645,l),
(157,762,o),
(124,980,o),
(-51,920,c)
);
}
);
width = 300;
}
);
unicode = 2379;
},
{
color = 7;
glyphname = "ausign-deva";
layers = (
{
layerId = "F57DB3D0-3720-4424-A829-EC3295753544";
associatedMasterId = "2ACD8D93-9596-4DD4-A1F7-681CA80B893F";
name = 1;
shapes = (
{
attr = {
};
closed = 1;
nodes = (
(-345,700,l),
(304,700,l),
(374,620,l),
(-275,620,l)
);
},
{
attr = {
};
closed = 1;
nodes = (
(145,647,l),
(145,737,o),
(82,940,o),
(-13,940,cs),
(-38,940,o),
(-82,924,o),
(-94,900,c),
(-154,999,l),
(-126,1014,o),
(-98,1020,o),
(-62,1020,cs),
(82,1020,o),
(192,833,o),
(192,647,c)
);
},
{
attr = {
};
closed = 1;
nodes = (
(143,666,l),
(143,758,o),
(45,785,o),
(-34,785,cs),
(-59,785,o),
(-102,769,o),
(-114,745,c),
(-174,840,l),
(-146,855,o),
(-118,861,o),
(-82,861,cs),
(65,861,o),
(193,758,o),
(193,666,c)
);
},
{
closed = 1;
nodes = (
(124,63,l),
(128,378,l),
(118,660,l),
(210,660,l),
(202,349,l),
(204,63,l)
);
},
{
closed = 1;
nodes = (
(149,163,l),
(202,123,l),
(212,-23,l),
(208,-23,l),
(84,37,l),
(84,41,l)
);
}
);
width = 321;
},
{
layerId = "2ACD8D93-9596-4DD4-A1F7-681CA80B893F";
shapes = (
{
attr = {
strokeWidth = 80;
};
closed = 0;
nodes = (
(125,638,l),
(102,707,o),
(37,824,o),
(-77,824,c)
);
},
{
attr = {
strokeWidth = 80;
};
closed = 0;
nodes = (
(160,700,l),
(160,0,o),
(160,231,o),
(160,0,c)
);
},
{
attr = {
strokeWidth = 80;
};
closed = 0;
nodes = (
(-163,660,l),
(360,660,l)
);
},
{
attr = {
strokeWidth = 80;
};
closed = 0;
nodes = (
(160,645,l),
(157,762,o),
(156,938,o),
(11,955,c)
);
}
);
width = 321;
}
);
unicode = 2380;
},
{
color = 7;
glyphname = "zero-deva";
layers = (
{
layerId = "F57DB3D0-3720-4424-A829-EC3295753544";
associatedMasterId = "2ACD8D93-9596-4DD4-A1F7-681CA80B893F";
name = 1;
shapes = (
{
closed = 1;
nodes = (
(460,553,o),
(420,620,o),
(300,620,cs),
(116,620,o),
(120,345,o),
(120,320,cs),
(120,132,o),
(166,80,o),
(270,80,cs),
(425,80,o),
(460,224,o),
(460,380,cs)
);
},
{
closed = 1;
nodes = (
(406,700,o),
(540,538,o),
(540,320,cs),
(540,135,o),
(438,0,o),
(290,0,cs),
(165,0,o),
(40,162,o),
(40,380,cs),
(40,545,o),
(142,700,o),
(270,700,cs)
);
},
{
closed = 1;
nodes = (
(456,573,o),
(447,564,o),
(436,564,cs),
(424,564,o),
(415,573,o),
(415,584,cs),
(415,596,o),
(424,605,o),
(436,605,cs),
(447,605,o),
(456,596,o),
(456,584,cs)
);
},
{
closed = 1;
nodes = (
(163,101,o),
(154,92,o),
(143,92,cs),
(131,92,o),
(122,101,o),
(122,112,cs),
(122,124,o),
(131,133,o),
(143,133,cs),
(154,133,o),
(163,124,o),
(163,112,cs)
);
}
);
width = 580;
},
{
layerId = "2ACD8D93-9596-4DD4-A1F7-681CA80B893F";
width = 488;
}
);
unicode = 2406;
},
{
color = 7;
glyphname = "two-deva";
layers = (
{
layerId = "F57DB3D0-3720-4424-A829-EC3295753544";
associatedMasterId = "2ACD8D93-9596-4DD4-A1F7-681CA80B893F";
name = 1;
shapes = (
{
closed = 1;
nodes = (
(310,408,o),
(269,351,o),
(178,351,cs),
(145,351,o),
(91,360,o),
(52,376,c),
(68,296,l),
(91,273,o),
(158,271,o),
(206,271,cs),
(308,271,o),
(390,376,o),
(390,472,cs),
(390,590,o),
(273,700,o),
(172,700,cs),
(74,700,o),
(40,606,o),
(40,558,c),
(40,558,o),
(160,487,o),
(160,487,c),
(160,486,o),
(160,620,o),
(160,620,c),
(249,620,o),
(310,630,o),
(310,540,cs)
);
},
{
closed = 1;
nodes = (
(330,79,l),
(260,20,l),
(147,176,o),
(141,331,o),
(154,348,c),
(49,378,l),
(49,261,o),
(240,-40,o),
(240,-40,c),
(240,-40,o),
(390,-40,o),
(390,-40,c)
);
}
);
width = 440;
},
{
layerId = "2ACD8D93-9596-4DD4-A1F7-681CA80B893F";
width = 488;
}
);
unicode = 2408;
},
{
color = 7;
glyphname = "three-deva";
layers = (
{
layerId = "F57DB3D0-3720-4424-A829-EC3295753544";
associatedMasterId = "2ACD8D93-9596-4DD4-A1F7-681CA80B893F";
name = 1;
shapes = (
{
closed = 1;
nodes = (
(343,630,o),
(362,605,o),
(362,530,cs),
(362,440,o),
(327,390,o),
(172,390,c),
(232,290,l),
(342,290,o),
(432,401,o),
(432,501,cs),
(432,609,o),
(328,700,o),
(205,700,cs),
(147,700,o),
(87,661,o),
(62,630,c),
(142,540,l),
(142,558,o),
(181,630,o),
(253,630,cs)
);
},
{
closed = 1;
nodes = (
(377,20,o),
(472,95,o),
(472,185,cs),
(472,290,o),
(405,368,o),
(308,368,c),
(298,355,l),
(357,356,o),
(392,294,o),
(392,207,cs),
(392,136,o),
(346,100,o),
(232,100,cs),
(171,100,o),
(129,108,o),
(97,134,c),
(147,194,l),
(40,253,l),
(40,108,o),
(127,20,o),
(272,20,cs)
);
},
{
closed = 1;
nodes = (
(300,-47,l),
(262,-56,o),
(209,-55,o),
(170,-47,c),
(141,-30,o),
(98,70,o),
(98,133,c),
(112,151,o),
(126,164,o),
(150,193,c),
(40,253,l),
(40,57,o),
(90,-147,o),
(300,-147,c)
);
}
);
width = 520;
},
{
layerId = "2ACD8D93-9596-4DD4-A1F7-681CA80B893F";
width = 488;
}
);
unicode = 2409;
},
{
color = 7;
glyphname = "four-deva";
layers = (
{
layerId = "F57DB3D0-3720-4424-A829-EC3295753544";
associatedMasterId = "2ACD8D93-9596-4DD4-A1F7-681CA80B893F";
name = 1;
shapes = (
{
closed = 1;
nodes = (
(62,753,l),
(301,628,o),
(550,332,o),
(550,175,cs),
(550,49,o),
(463,0,o),
(367,0,cs),
(261,0,o),
(160,100,o),
(160,202,cs),
(160,362,o),
(410,663,o),
(610,746,c),
(640,672,l),
(464,599,o),
(230,314,o),
(230,173,cs),
(230,145,o),
(221,80,o),
(327,80,cs),
(462,80,o),
(479,142,o),
(479,216,cs),
(479,368,o),
(252,599,o),
(35,724,c)
);
},
{
closed = 1;
nodes = (
(58,732,o),
(67,741,o),
(78,741,cs),
(89,741,o),
(98,732,o),
(98,721,cs),
(98,710,o),
(89,701,o),
(78,701,cs),
(67,701,o),
(58,710,o),
(58,721,cs)
);
},
{
closed = 1;
nodes = (
(442,359,o),
(451,368,o),
(462,368,cs),
(473,368,o),
(482,359,o),
(482,348,cs),
(482,337,o),
(473,328,o),
(462,328,cs),
(451,328,o),
(442,337,o),
(442,348,cs)
);
},
{
closed = 1;
nodes = (
(215,94,o),
(224,103,o),
(235,103,cs),
(246,103,o),
(255,94,o),
(255,83,cs),
(255,72,o),
(246,63,o),
(235,63,cs),
(224,63,o),
(215,72,o),
(215,83,cs)
);
}
);
width = 487;
},
{
layerId = "2ACD8D93-9596-4DD4-A1F7-681CA80B893F";
width = 487;
}
);
unicode = 2410;
},
{
glyphname = stemserif.001;
layers = (
{
layerId = "F6DE7261-5456-4CA7-8413-0F015D83E0EA";
name = "ीाुहतोी";
shapes = (
{
closed = 1;
nodes = (
(140,133,l),
(140,0,l),
(136,0,l),
(0,80,l),
(0,84,l),
(60,133,l),
(60,627,l),
(140,627,l)
);
}
);
width = 140;
}
);
},
{
glyphname = pa_bowl;
layers = (
{
layerId = "2ACD8D93-9596-4DD4-A1F7-681CA80B893F";
shapes = (
{
closed = 1;
nodes = (
(0,660,l),
(80,660,l),
(80,380,ls),
(80,320,o),
(94,270,o),
(160,270,cs),
(244,270,o),
(313,325,o),
(323,404,c),
(399,404,l),
(399,269,o),
(311,220,o),
(200,220,cs),
(57,220,o),
(0,329,o),
(0,440,cs)
);
}
);
width = 400;
}
);
},
{
glyphname = stemserif;
layers = (
{
anchors = (
{
name = top;
position = "{80, 660}";
},
{
name = bottom;
position = "{80, 20}";
},
{
name = anutop;
position = "{80, 980}";
}
);
guides = (
{
position = "{0, 981}";
}
);
layerId = "2ACD8D93-9596-4DD4-A1F7-681CA80B893F";
shapes = (
{
closed = 1;
nodes = (
(40,63,l),
(44,378,l),
(34,660,l),
(126,660,l),
(118,349,l),
(120,63,l)
);
},
{
closed = 1;
nodes = (
(65,163,l),
(118,123,l),
(128,-23,l),
(124,-23,l),
(0,37,l),
(0,41,l)
);
}
);
width = 128;
}
);
},
{
glyphname = Daa;
layers = (
{
anchors = (
{
name = top;
position = "{360, 660}";
},
{
name = bottom;
position = "{240, 0}";
},
{
name = anutop;
position = "{360, 980}";
}
);
layerId = "2ACD8D93-9596-4DD4-A1F7-681CA80B893F";
shapes = (
{
closed = 1;
nodes = (
(130,320,ls),
(100,320,o),
(90,330,o),
(90,362,cs),
(90,414,o),
(117,440,o),
(171,440,cs),
(400,440,l),
(400,660,l),
(320,660,l),
(320,520,l),
(171,520,ls),
(85,520,o),
(30,475,o),
(30,404,cs),
(30,322,o),
(105,240,o),
(181,240,cs),
(329,240,ls),
(380,240,o),
(390,233,o),
(390,197,cs),
(390,124,o),
(339,80,o),
(210,80,cs),
(137,80,o),
(92,91,o),
(59,118,c),
(110,180,l),
(0,240,l),
(0,91,o),
(91,0,o),
(240,0,cs),
(369,0,o),
(460,68,o),
(460,162,cs),
(460,246,o),
(386,320,o),
(300,320,cs)
);
}
);
width = 460;
}
);
},
{
glyphname = Aa_bowl;
layers = (
{
layerId = "2ACD8D93-9596-4DD4-A1F7-681CA80B893F";
shapes = (
{
closed = 1;
nodes = (
(100,260,l),
(0,260,l),
(0,142,o),
(140,10,o),
(280,10,cs),
(384,10,o),
(470,86,o),
(470,192,cs),
(470,295,o),
(400,372,o),
(305,372,c),
(295,350,l),
(353,351,o),
(390,299,o),
(390,214,cs),
(390,124,o),
(342,90,o),
(230,90,cs),
(141,90,o),
(100,120,o),
(100,120,c)
);
},
{
closed = 1;
nodes = (
(331,630,o),
(350,605,o),
(350,530,cs),
(350,440,o),
(315,420,o),
(160,420,c),
(220,320,l),
(330,320,o),
(420,401,o),
(420,501,cs),
(420,609,o),
(316,700,o),
(193,700,cs),
(135,700,o),
(85,681,o),
(60,650,c),
(140,560,l),
(140,578,o),
(169,630,o),
(241,630,cs)
);
},
{
closed = 1;
nodes = (
(349,367,l),
(376,300,l),
(670,300,l),
(671,394,l)
);
}
);
width = 671;
}
);
},
{
glyphname = "nukta-deva";
layers = (
{
layerId = "2ACD8D93-9596-4DD4-A1F7-681CA80B893F";
shapes = (
{
closed = 1;
nodes = (
(57,95,l),
(112,152,l),
(55,209,l),
(0,152,l)
);
}
);
width = 112;
}
);
unicode = 2364;
},
{
glyphname = "purnaviram-deva";
layers = (
{
layerId = "2ACD8D93-9596-4DD4-A1F7-681CA80B893F";
shapes = (
{
closed = 1;
nodes = (
(40,3,l),
(44,378,l),
(36,760,l),
(134,680,l),
(128,349,l),
(130,3,l)
);
},
{
closed = 1;
nodes = (
(65,106,l),
(128,66,l),
(138,-80,l),
(134,-80,l),
(0,-20,l),
(0,-16,l)
);
}
);
width = 138;
}
);
unicode = 2404;
},
